<svg width="374" height="388" viewBox="0 0 374 388" fill="none" xmlns="http://www.w3.org/2000/svg">
<rect width="374" height="388" fill="#070E27"/>
<rect width="22.5" height="22.5" fill="#070E27"/>
<rect width="22.5" height="22.5" transform="translate(0 180)" fill="#070E27"/>
<rect width="22.5" height="22.5" transform="translate(0 90)" fill="#070E27"/>
<rect width="22.5" height="22.5" transform="translate(0 270)" fill="#070E27"/>
<rect width="22.5" height="22.5" transform="translate(0 45)" fill="#070E27"/>
<rect width="22.5" height="22.5" transform="translate(0 225)" fill="#070E27"/>
<rect width="22.5" height="22.5" transform="translate(0 135)" fill="#070E27"/>
<rect width="22.5" height="22.5" transform="translate(0 315)" fill="#070E27"/>
<rect width="22.5" height="22.5" transform="translate(0 22.5)" fill="#070E27"/>
<rect width="22.5" height="22.5" transform="translate(0 202.5)" fill="#070E27"/>
<rect width="22.5" height="22.5" transform="translate(0 112.5)" fill="#070E27"/>
<rect width="22.5" height="22.5" transform="translate(0 292.5)" fill="#070E27"/>
<rect width="22.5" height="22.5" transform="translate(0 67.5)" fill="#070E27"/>
<rect width="22.5" height="22.5" transform="translate(0 247.5)" fill="#070E27"/>
<rect width="22.5" height="22.5" transform="translate(0 157.5)" fill="#070E27"/>
<rect width="22.5" height="22.5" transform="translate(0 337.5)" fill="#070E27"/>
<rect width="22.5" height="22.5" transform="translate(45)" fill="#070E27"/>
<rect width="22.5" height="22.5" transform="translate(45 180)" fill="#070E27"/>
<rect width="22.5" height="22.5" transform="translate(45 90)" fill="#070E27"/>
<rect width="22.5" height="22.5" transform="translate(45 270)" fill="#070E27"/>
<rect width="22.5" height="22.5" transform="translate(45 45)" fill="#070E27"/>
<rect width="22.5" height="22.5" transform="translate(45 225)" fill="#070E27"/>
<rect width="22.5" height="22.5" transform="translate(45 135)" fill="#070E27"/>
<rect width="22.5" height="22.5" transform="translate(45 315)" fill="#070E27"/>
<rect width="22.5" height="22.5" transform="translate(67.5)" fill="#070E27"/>
<rect width="22.5" height="22.5" transform="translate(67.5 180)" fill="#070E27"/>
<rect width="22.5" height="22.5" transform="translate(67.5 90)" fill="#EFDBFF"/>
<rect width="22.5" height="22.5" transform="translate(67.5 270)" fill="#614700"/>
<rect width="22.5" height="22.5" transform="translate(67.5 45)" fill="#070E27"/>
<rect width="22.5" height="22.5" transform="translate(67.5 225)" fill="#614700"/>
<rect width="22.5" height="22.5" transform="translate(67.5 135)" fill="#EFDBFF"/>
<rect width="22.5" height="22.5" transform="translate(67.5 315)" fill="#070E27"/>
<rect width="22.5" height="22.5" transform="translate(90)" fill="#070E27"/>
<rect width="22.5" height="22.5" transform="translate(90 180)" fill="#EFDBFF"/>
<rect width="22.5" height="22.5" transform="translate(90 90)" fill="#EFDBFF"/>
<rect width="22.5" height="22.5" transform="translate(90 270)" fill="#876800"/>
<rect width="22.5" height="22.5" transform="translate(90 45)" fill="#070E27"/>
<rect width="22.5" height="22.5" transform="translate(90 225)" fill="#FADB14"/>
<rect width="22.5" height="22.5" transform="translate(90 135)" fill="#EFDBFF"/>
<rect width="22.5" height="22.5" transform="translate(90 315)" fill="#070E27"/>
<rect width="22.5" height="22.5" transform="translate(112.5)" fill="#070E27"/>
<rect width="22.5" height="22.5" transform="translate(112.5 180)" fill="#EFDBFF"/>
<rect width="22.5" height="22.5" transform="translate(112.5 90)" fill="#EFDBFF"/>
<rect width="22.5" height="22.5" transform="translate(112.5 270)" fill="#FFEC3D"/>
<rect width="22.5" height="22.5" transform="translate(112.5 45)" fill="#070E27"/>
<rect width="22.5" height="22.5" transform="translate(112.5 225)" fill="#876800"/>
<rect width="22.5" height="22.5" transform="translate(112.5 135)" fill="#EFDBFF"/>
<rect width="22.5" height="22.5" transform="translate(112.5 315)" fill="black"/>
<rect width="22.5" height="22.5" transform="translate(135)" fill="#070E27"/>
<rect width="22.5" height="22.5" transform="translate(135 180)" fill="#EFDBFF"/>
<rect width="22.5" height="22.5" transform="translate(135 90)" fill="#EFDBFF"/>
<rect width="22.5" height="22.5" transform="translate(135 270)" fill="#FFEC3D"/>
<rect width="22.5" height="22.5" transform="translate(135 45)" fill="#070E27"/>
<rect width="22.5" height="22.5" transform="translate(135 225)" fill="#FADB14"/>
<rect width="22.5" height="22.5" transform="translate(135 135)" fill="black"/>
<rect width="22.5" height="22.5" transform="translate(135 315)" fill="#876800"/>
<rect width="22.5" height="22.5" transform="translate(157.5)" fill="#070E27"/>
<rect width="22.5" height="22.5" transform="translate(157.5 180)" fill="#EFDBFF"/>
<rect width="22.5" height="22.5" transform="translate(157.5 90)" fill="#EFDBFF"/>
<rect width="22.5" height="22.5" transform="translate(157.5 270)" fill="#EFDBFF"/>
<rect width="22.5" height="22.5" transform="translate(157.5 45)" fill="#070E27"/>
<rect width="22.5" height="22.5" transform="translate(157.5 225)" fill="#EFDBFF"/>
<rect width="22.5" height="22.5" transform="translate(157.5 135)" fill="#EFDBFF"/>
<rect width="22.5" height="22.5" transform="translate(157.5 315)" fill="#070E27"/>
<rect width="22.5" height="22.5" transform="translate(180)" fill="#070E27"/>
<rect width="22.5" height="22.5" transform="translate(180 180)" fill="#EFDBFF"/>
<rect width="22.5" height="22.5" transform="translate(180 90)" fill="#EFDBFF"/>
<rect width="22.5" height="22.5" transform="translate(180 270)" fill="#FADB14"/>
<rect width="22.5" height="22.5" transform="translate(180 45)" fill="#070E27"/>
<rect width="22.5" height="22.5" transform="translate(180 225)" fill="#EFDBFF"/>
<rect width="22.5" height="22.5" transform="translate(180 135)" fill="#EFDBFF"/>
<rect width="22.5" height="22.5" transform="translate(180 315)" fill="#070E27"/>
<rect width="22.5" height="22.5" transform="translate(202.5)" fill="#070E27"/>
<rect width="22.5" height="22.5" transform="translate(202.5 180)" fill="#EFDBFF"/>
<rect width="22.5" height="22.5" transform="translate(202.5 90)" fill="#EFDBFF"/>
<rect width="22.5" height="22.5" transform="translate(202.5 270)" fill="#FADB14"/>
<rect width="22.5" height="22.5" transform="translate(202.5 45)" fill="#070E27"/>
<rect width="22.5" height="22.5" transform="translate(202.5 225)" fill="#EFDBFF"/>
<rect width="22.5" height="22.5" transform="translate(202.5 135)" fill="#EFDBFF"/>
<rect width="22.5" height="22.5" transform="translate(202.5 315)" fill="#876800"/>
<rect width="22.5" height="22.5" transform="translate(225)" fill="#070E27"/>
<rect width="22.5" height="22.5" transform="translate(225 180)" fill="#EFDBFF"/>
<rect width="22.5" height="22.5" transform="translate(225 90)" fill="#EFDBFF"/>
<rect width="22.5" height="22.5" transform="translate(225 270)" fill="#FADB14"/>
<rect width="22.5" height="22.5" transform="translate(225 45)" fill="#070E27"/>
<rect width="22.5" height="22.5" transform="translate(225 225)" fill="#FADB14"/>
<rect width="22.5" height="22.5" transform="translate(225 135)" fill="black"/>
<rect width="22.5" height="22.5" transform="translate(225 315)" fill="#876800"/>
<rect width="22.5" height="22.5" transform="translate(247.5)" fill="#070E27"/>
<rect width="22.5" height="22.5" transform="translate(247.5 180)" fill="#EFDBFF"/>
<rect width="22.5" height="22.5" transform="translate(247.5 90)" fill="#EFDBFF"/>
<rect width="22.5" height="22.5" transform="translate(247.5 270)" fill="#FFEC3D"/>
<rect width="22.5" height="22.5" transform="translate(247.5 45)" fill="#070E27"/>
<rect width="22.5" height="22.5" transform="translate(247.5 225)" fill="#FADB14"/>
<rect width="22.5" height="22.5" transform="translate(247.5 135)" fill="#EFDBFF"/>
<rect width="22.5" height="22.5" transform="translate(247.5 315)" fill="#070E27"/>
<rect width="22.5" height="22.5" transform="translate(270)" fill="#070E27"/>
<rect width="22.5" height="22.5" transform="translate(270 180)" fill="#070E27"/>
<rect width="22.5" height="22.5" transform="translate(270 90)" fill="#070E27"/>
<rect width="22.5" height="22.5" transform="translate(270 270)" fill="#EFDBFF"/>
<rect width="22.5" height="22.5" transform="translate(270 45)" fill="#070E27"/>
<rect width="22.5" height="22.5" transform="translate(270 225)" fill="#070E27"/>
<rect width="22.5" height="22.5" transform="translate(270 135)" fill="#070E27"/>
<rect width="22.5" height="22.5" transform="translate(270 315)" fill="#070E27"/>
<rect width="22.5" height="22.5" transform="translate(292.5)" fill="#070E27"/>
<rect width="22.5" height="22.5" transform="translate(292.5 180)" fill="#070E27"/>
<rect width="22.5" height="22.5" transform="translate(292.5 90)" fill="#070E27"/>
<rect width="22.5" height="22.5" transform="translate(292.5 270)" fill="#070E27"/>
<rect width="22.5" height="22.5" transform="translate(292.5 45)" fill="#070E27"/>
<rect width="22.5" height="22.5" transform="translate(292.5 225)" fill="#070E27"/>
<rect width="22.5" height="22.5" transform="translate(292.5 135)" fill="#070E27"/>
<rect width="22.5" height="22.5" transform="translate(292.5 315)" fill="#070E27"/>
<rect width="22.5" height="22.5" transform="translate(315)" fill="#070E27"/>
<rect width="22.5" height="22.5" transform="translate(315 180)" fill="#070E27"/>
<rect width="22.5" height="22.5" transform="translate(315 90)" fill="#070E27"/>
<rect width="22.5" height="22.5" transform="translate(315 270)" fill="#070E27"/>
<rect width="22.5" height="22.5" transform="translate(315 45)" fill="#070E27"/>
<rect width="22.5" height="22.5" transform="translate(315 225)" fill="#070E27"/>
<rect width="22.5" height="22.5" transform="translate(315 135)" fill="#070E27"/>
<rect width="22.5" height="22.5" transform="translate(315 315)" fill="#070E27"/>
<rect width="22.5" height="22.5" transform="translate(337.5)" fill="#070E27"/>
<rect width="22.5" height="22.5" transform="translate(337.5 180)" fill="#070E27"/>
<rect width="22.5" height="22.5" transform="translate(337.5 90)" fill="#070E27"/>
<rect width="22.5" height="22.5" transform="translate(337.5 270)" fill="#070E27"/>
<rect width="22.5" height="22.5" transform="translate(337.5 45)" fill="#070E27"/>
<rect width="22.5" height="22.5" transform="translate(337.5 225)" fill="#070E27"/>
<rect width="22.5" height="22.5" transform="translate(337.5 135)" fill="#070E27"/>
<rect width="22.5" height="22.5" transform="translate(337.5 315)" fill="#070E27"/>
<rect width="22.5" height="22.5" transform="translate(45 22.5)" fill="#070E27"/>
<rect width="22.5" height="22.5" transform="translate(45 202.5)" fill="#070E27"/>
<rect width="22.5" height="22.5" transform="translate(45 112.5)" fill="#070E27"/>
<rect width="22.5" height="22.5" transform="translate(45 292.5)" fill="#070E27"/>
<rect width="22.5" height="22.5" transform="translate(45 67.5)" fill="#070E27"/>
<rect width="22.5" height="22.5" transform="translate(45 247.5)" fill="#070E27"/>
<rect width="22.5" height="22.5" transform="translate(45 157.5)" fill="#070E27"/>
<rect width="22.5" height="22.5" transform="translate(45 337.5)" fill="#070E27"/>
<rect width="22.5" height="22.5" transform="translate(67.5 22.5)" fill="#070E27"/>
<rect width="22.5" height="22.5" transform="translate(67.5 202.5)" fill="#070E27"/>
<rect width="22.5" height="22.5" transform="translate(67.5 112.5)" fill="#D3ADF7"/>
<rect width="22.5" height="22.5" transform="translate(67.5 292.5)" fill="#070E27"/>
<rect width="22.5" height="22.5" transform="translate(67.5 67.5)" fill="#070E27"/>
<rect width="22.5" height="22.5" transform="translate(67.5 247.5)" fill="#614700"/>
<rect width="22.5" height="22.5" transform="translate(67.5 157.5)" fill="#D3ADF7"/>
<rect width="22.5" height="22.5" transform="translate(67.5 337.5)" fill="#070E27"/>
<rect width="22.5" height="22.5" transform="translate(90 22.5)" fill="#070E27"/>
<rect width="22.5" height="22.5" transform="translate(90 202.5)" fill="#614700"/>
<rect width="22.5" height="22.5" transform="translate(90 112.5)" fill="#EFDBFF"/>
<rect width="22.5" height="22.5" transform="translate(90 292.5)" fill="#614700"/>
<rect width="22.5" height="22.5" transform="translate(90 67.5)" fill="#D3ADF7"/>
<rect width="22.5" height="22.5" transform="translate(90 247.5)" fill="#876800"/>
<rect width="22.5" height="22.5" transform="translate(90 157.5)" fill="#EFDBFF"/>
<rect width="22.5" height="22.5" transform="translate(90 337.5)" fill="#070E27"/>
<rect width="22.5" height="22.5" transform="translate(112.5 22.5)" fill="#070E27"/>
<rect width="22.5" height="22.5" transform="translate(112.5 202.5)" fill="#FADB14"/>
<rect width="22.5" height="22.5" transform="translate(112.5 112.5)" fill="#EFDBFF"/>
<rect width="22.5" height="22.5" transform="translate(112.5 292.5)" fill="black"/>
<rect width="22.5" height="22.5" transform="translate(112.5 67.5)" fill="#EFDBFF"/>
<rect width="22.5" height="22.5" transform="translate(112.5 247.5)" fill="#FFEC3D"/>
<rect width="22.5" height="22.5" transform="translate(112.5 157.5)" fill="#EFDBFF"/>
<rect width="22.5" height="22.5" transform="translate(112.5 337.5)" fill="#FF4D4F"/>
<rect width="22.5" height="22.5" transform="translate(135 22.5)" fill="#070E27"/>
<rect width="22.5" height="22.5" transform="translate(135 202.5)" fill="#EFDBFF"/>
<rect width="22.5" height="22.5" transform="translate(135 112.5)" fill="#EFDBFF"/>
<rect width="22.5" height="22.5" transform="translate(135 292.5)" fill="#876800"/>
<rect width="22.5" height="22.5" transform="translate(135 67.5)" fill="#D3ADF7"/>
<rect width="22.5" height="22.5" transform="translate(135 247.5)" fill="#876800"/>
<rect width="22.5" height="22.5" transform="translate(135 157.5)" fill="black"/>
<rect width="22.5" height="22.5" transform="translate(135 337.5)" fill="#FF4D4F"/>
<rect width="22.5" height="22.5" transform="translate(157.5 22.5)" fill="#070E27"/>
<rect width="22.5" height="22.5" transform="translate(157.5 202.5)" fill="#EFDBFF"/>
<rect width="22.5" height="22.5" transform="translate(157.5 112.5)" fill="#EFDBFF"/>
<rect width="22.5" height="22.5" transform="translate(157.5 292.5)" fill="#876800"/>
<rect width="22.5" height="22.5" transform="translate(157.5 67.5)" fill="#EFDBFF"/>
<rect width="22.5" height="22.5" transform="translate(157.5 247.5)" fill="#FADB14"/>
<rect width="22.5" height="22.5" transform="translate(157.5 157.5)" fill="#EFDBFF"/>
<rect width="22.5" height="22.5" transform="translate(157.5 337.5)" fill="#070E27"/>
<rect width="22.5" height="22.5" transform="translate(180 22.5)" fill="#070E27"/>
<rect width="22.5" height="22.5" transform="translate(180 202.5)" fill="#FFA39E"/>
<rect width="22.5" height="22.5" transform="translate(180 112.5)" fill="#EFDBFF"/>
<rect width="22.5" height="22.5" transform="translate(180 292.5)" fill="#876800"/>
<rect width="22.5" height="22.5" transform="translate(180 67.5)" fill="#D3ADF7"/>
<rect width="22.5" height="22.5" transform="translate(180 247.5)" fill="#FADB14"/>
<rect width="22.5" height="22.5" transform="translate(180 157.5)" fill="#EFDBFF"/>
<rect width="22.5" height="22.5" transform="translate(180 337.5)" fill="#070E27"/>
<rect width="22.5" height="22.5" transform="translate(202.5 22.5)" fill="#070E27"/>
<rect width="22.5" height="22.5" transform="translate(202.5 202.5)" fill="#EFDBFF"/>
<rect width="22.5" height="22.5" transform="translate(202.5 112.5)" fill="#EFDBFF"/>
<rect width="22.5" height="22.5" transform="translate(202.5 292.5)" fill="#876800"/>
<rect width="22.5" height="22.5" transform="translate(202.5 67.5)" fill="#EFDBFF"/>
<rect width="22.5" height="22.5" transform="translate(202.5 247.5)" fill="#FADB14"/>
<rect width="22.5" height="22.5" transform="translate(202.5 157.5)" fill="#EFDBFF"/>
<rect width="22.5" height="22.5" transform="translate(202.5 337.5)" fill="#FF4D4F"/>
<rect width="22.5" height="22.5" transform="translate(225 22.5)" fill="#070E27"/>
<rect width="22.5" height="22.5" transform="translate(225 202.5)" fill="#EFDBFF"/>
<rect width="22.5" height="22.5" transform="translate(225 112.5)" fill="#EFDBFF"/>
<rect width="22.5" height="22.5" transform="translate(225 292.5)" fill="#876800"/>
<rect width="22.5" height="22.5" transform="translate(225 67.5)" fill="#D3ADF7"/>
<rect width="22.5" height="22.5" transform="translate(225 247.5)" fill="#FADB14"/>
<rect width="22.5" height="22.5" transform="translate(225 157.5)" fill="black"/>
<rect width="22.5" height="22.5" transform="translate(225 337.5)" fill="#FF4D4F"/>
<rect width="22.5" height="22.5" transform="translate(247.5 22.5)" fill="#070E27"/>
<rect width="22.5" height="22.5" transform="translate(247.5 202.5)" fill="#070E27"/>
<rect width="22.5" height="22.5" transform="translate(247.5 112.5)" fill="#EFDBFF"/>
<rect width="22.5" height="22.5" transform="translate(247.5 292.5)" fill="#070E27"/>
<rect width="22.5" height="22.5" transform="translate(247.5 67.5)" fill="#070E27"/>
<rect width="22.5" height="22.5" transform="translate(247.5 247.5)" fill="#FFEC3D"/>
<rect width="22.5" height="22.5" transform="translate(247.5 157.5)" fill="#EFDBFF"/>
<rect width="22.5" height="22.5" transform="translate(247.5 337.5)" fill="#070E27"/>
<rect width="22.5" height="22.5" transform="translate(270 22.5)" fill="#070E27"/>
<rect width="22.5" height="22.5" transform="translate(270 202.5)" fill="#070E27"/>
<rect width="22.5" height="22.5" transform="translate(270 112.5)" fill="#070E27"/>
<rect width="22.5" height="22.5" transform="translate(270 292.5)" fill="#070E27"/>
<rect width="22.5" height="22.5" transform="translate(270 67.5)" fill="#070E27"/>
<rect width="22.5" height="22.5" transform="translate(270 247.5)" fill="#070E27"/>
<rect width="22.5" height="22.5" transform="translate(270 157.5)" fill="#070E27"/>
<rect width="22.5" height="22.5" transform="translate(270 337.5)" fill="#070E27"/>
<rect width="22.5" height="22.5" transform="translate(292.5 22.5)" fill="#070E27"/>
<rect width="22.5" height="22.5" transform="translate(292.5 202.5)" fill="#070E27"/>
<rect width="22.5" height="22.5" transform="translate(292.5 112.5)" fill="#070E27"/>
<rect width="22.5" height="22.5" transform="translate(292.5 292.5)" fill="#070E27"/>
<rect width="22.5" height="22.5" transform="translate(292.5 67.5)" fill="#070E27"/>
<rect width="22.5" height="22.5" transform="translate(292.5 247.5)" fill="#070E27"/>
<rect width="22.5" height="22.5" transform="translate(292.5 157.5)" fill="#070E27"/>
<rect width="22.5" height="22.5" transform="translate(292.5 337.5)" fill="#070E27"/>
<rect width="22.5" height="22.5" transform="translate(315 22.5)" fill="#070E27"/>
<rect width="22.5" height="22.5" transform="translate(315 202.5)" fill="#070E27"/>
<rect width="22.5" height="22.5" transform="translate(315 112.5)" fill="#070E27"/>
<rect width="22.5" height="22.5" transform="translate(315 292.5)" fill="#070E27"/>
<rect width="22.5" height="22.5" transform="translate(315 67.5)" fill="#070E27"/>
<rect width="22.5" height="22.5" transform="translate(315 247.5)" fill="#070E27"/>
<rect width="22.5" height="22.5" transform="translate(315 157.5)" fill="#070E27"/>
<rect width="22.5" height="22.5" transform="translate(315 337.5)" fill="#070E27"/>
<rect width="22.5" height="22.5" transform="translate(337.5 22.5)" fill="#070E27"/>
<rect width="22.5" height="22.5" transform="translate(337.5 202.5)" fill="#070E27"/>
<rect width="22.5" height="22.5" transform="translate(337.5 112.5)" fill="#070E27"/>
<rect width="22.5" height="22.5" transform="translate(337.5 292.5)" fill="#070E27"/>
<rect width="22.5" height="22.5" transform="translate(337.5 67.5)" fill="#070E27"/>
<rect width="22.5" height="22.5" transform="translate(337.5 247.5)" fill="#070E27"/>
<rect width="22.5" height="22.5" transform="translate(337.5 157.5)" fill="#070E27"/>
<rect width="22.5" height="22.5" transform="translate(337.5 337.5)" fill="#070E27"/>
<rect width="22.5" height="22.5" transform="translate(22.5)" fill="#070E27"/>
<rect width="22.5" height="22.5" transform="translate(22.5 180)" fill="#070E27"/>
<rect width="22.5" height="22.5" transform="translate(22.5 90)" fill="#070E27"/>
<rect width="22.5" height="22.5" transform="translate(22.5 270)" fill="#070E27"/>
<rect width="22.5" height="22.5" transform="translate(22.5 45)" fill="#070E27"/>
<rect width="22.5" height="22.5" transform="translate(22.5 225)" fill="#070E27"/>
<rect width="22.5" height="22.5" transform="translate(22.5 135)" fill="#070E27"/>
<rect width="22.5" height="22.5" transform="translate(22.5 315)" fill="#070E27"/>
<rect width="22.5" height="22.5" transform="translate(22.5 22.5)" fill="#070E27"/>
<rect width="22.5" height="22.5" transform="translate(22.5 202.5)" fill="#070E27"/>
<rect width="22.5" height="22.5" transform="translate(22.5 112.5)" fill="#070E27"/>
<rect width="22.5" height="22.5" transform="translate(22.5 292.5)" fill="#070E27"/>
<rect width="22.5" height="22.5" transform="translate(22.5 67.5)" fill="#070E27"/>
<rect width="22.5" height="22.5" transform="translate(22.5 247.5)" fill="#070E27"/>
<rect width="22.5" height="22.5" transform="translate(22.5 157.5)" fill="#070E27"/>
<rect width="22.5" height="22.5" transform="translate(22.5 337.5)" fill="#070E27"/>
</svg>
