<svg width="374" height="388" viewBox="0 0 374 388" fill="none" xmlns="http://www.w3.org/2000/svg">
<g clip-path="url(#clip0_2_681)">
<rect width="374" height="388" fill="#070E27"/>
<rect width="22.5625" height="22.5625" fill="#070E27"/>
<rect width="22.5625" height="22.5625" transform="translate(0 180.5)" fill="#070E27"/>
<rect width="22.5625" height="22.5625" transform="translate(0 90.25)" fill="#070E27"/>
<rect width="22.5625" height="22.5625" transform="translate(0 270.75)" fill="#070E27"/>
<rect width="22.5625" height="22.5625" transform="translate(0 45.125)" fill="#070E27"/>
<rect width="22.5625" height="22.5625" transform="translate(0 225.625)" fill="#070E27"/>
<rect width="22.5625" height="22.5625" transform="translate(0 135.375)" fill="#070E27"/>
<rect width="22.5625" height="22.5625" transform="translate(0 315.875)" fill="#070E27"/>
<rect width="22.5625" height="22.5625" transform="translate(0 22.5625)" fill="#070E27"/>
<rect width="22.5625" height="22.5625" transform="translate(0 203.062)" fill="#070E27"/>
<rect width="22.5625" height="22.5625" transform="translate(0 112.812)" fill="#070E27"/>
<rect width="22.5625" height="22.5625" transform="translate(0 293.312)" fill="#070E27"/>
<rect width="22.5625" height="22.5625" transform="translate(0 67.6875)" fill="#070E27"/>
<rect width="22.5625" height="22.5625" transform="translate(0 248.188)" fill="#070E27"/>
<rect width="22.5625" height="22.5625" transform="translate(0 157.938)" fill="#070E27"/>
<rect width="22.5625" height="22.5625" transform="translate(0 338.438)" fill="#070E27"/>
<rect width="22.5625" height="22.5625" transform="translate(45.125)" fill="#070E27"/>
<rect width="22.5625" height="22.5625" transform="translate(45.125 180.5)" fill="#070E27"/>
<rect width="22.5625" height="22.5625" transform="translate(45.125 90.25)" fill="#070E27"/>
<rect width="22.5625" height="22.5625" transform="translate(45.125 270.75)" fill="#070E27"/>
<rect width="22.5625" height="22.5625" transform="translate(45.125 45.125)" fill="#070E27"/>
<rect width="22.5625" height="22.5625" transform="translate(45.125 225.625)" fill="#070E27"/>
<rect width="22.5625" height="22.5625" transform="translate(45.125 135.375)" fill="#070E27"/>
<rect width="22.5625" height="22.5625" transform="translate(45.125 315.875)" fill="#070E27"/>
<rect width="22.5625" height="22.5625" transform="translate(67.6875)" fill="#070E27"/>
<rect width="22.5625" height="22.5625" transform="translate(67.6875 180.5)" fill="#070E27"/>
<rect width="22.5625" height="22.5625" transform="translate(67.6875 90.25)" fill="#FAAD14"/>
<rect width="22.5625" height="22.5625" transform="translate(67.6875 270.75)" fill="#030852"/>
<rect width="22.5625" height="22.5625" transform="translate(67.6875 45.125)" fill="#070E27"/>
<rect width="22.5625" height="22.5625" transform="translate(67.6875 225.625)" fill="#030852"/>
<rect width="22.5625" height="22.5625" transform="translate(67.6875 135.375)" fill="#FFD8BF"/>
<rect width="22.5625" height="22.5625" transform="translate(67.6875 315.875)" fill="#070E27"/>
<rect width="22.5625" height="22.5625" transform="translate(90.25)" fill="#070E27"/>
<rect width="22.5625" height="22.5625" transform="translate(90.25 180.5)" fill="#FFD8BF"/>
<rect width="22.5625" height="22.5625" transform="translate(90.25 90.25)" fill="#FFC53D"/>
<rect width="22.5625" height="22.5625" transform="translate(90.25 270.75)" fill="#061178"/>
<rect width="22.5625" height="22.5625" transform="translate(90.25 45.125)" fill="#070E27"/>
<rect width="22.5625" height="22.5625" transform="translate(90.25 225.625)" fill="#2F54EB"/>
<rect width="22.5625" height="22.5625" transform="translate(90.25 135.375)" fill="#FFD8BF"/>
<rect width="22.5625" height="22.5625" transform="translate(90.25 315.875)" fill="#070E27"/>
<rect width="22.5625" height="22.5625" transform="translate(112.812)" fill="#070E27"/>
<rect width="22.5625" height="22.5625" transform="translate(112.812 180.5)" fill="#FFD8BF"/>
<rect width="22.5625" height="22.5625" transform="translate(112.812 90.25)" fill="#FFC53D"/>
<rect width="22.5625" height="22.5625" transform="translate(112.812 270.75)" fill="#597EF7"/>
<rect width="22.5625" height="22.5625" transform="translate(112.812 45.125)" fill="#070E27"/>
<rect width="22.5625" height="22.5625" transform="translate(112.812 225.625)" fill="#061178"/>
<rect width="22.5625" height="22.5625" transform="translate(112.812 135.375)" fill="#780650"/>
<rect width="22.5625" height="22.5625" transform="translate(112.812 315.875)" fill="black"/>
<rect width="22.5625" height="22.5625" transform="translate(135.375)" fill="#070E27"/>
<rect width="22.5625" height="22.5625" transform="translate(135.375 180.5)" fill="#FFD8BF"/>
<rect width="22.5625" height="22.5625" transform="translate(135.375 90.25)" fill="#FFC53D"/>
<rect width="22.5625" height="22.5625" transform="translate(135.375 270.75)" fill="#597EF7"/>
<rect width="22.5625" height="22.5625" transform="translate(135.375 45.125)" fill="#070E27"/>
<rect width="22.5625" height="22.5625" transform="translate(135.375 225.625)" fill="#2F54EB"/>
<rect width="22.5625" height="22.5625" transform="translate(135.375 135.375)" fill="#520339"/>
<rect width="22.5625" height="22.5625" transform="translate(135.375 315.875)" fill="#061178"/>
<rect width="22.5625" height="22.5625" transform="translate(157.938)" fill="#070E27"/>
<rect width="22.5625" height="22.5625" transform="translate(157.938 180.5)" fill="#FFD8BF"/>
<rect width="22.5625" height="22.5625" transform="translate(157.938 90.25)" fill="#FFC53D"/>
<rect width="22.5625" height="22.5625" transform="translate(157.938 270.75)" fill="#FFD8BF"/>
<rect width="22.5625" height="22.5625" transform="translate(157.938 45.125)" fill="#070E27"/>
<rect width="22.5625" height="22.5625" transform="translate(157.938 225.625)" fill="#FFD8BF"/>
<rect width="22.5625" height="22.5625" transform="translate(157.938 135.375)" fill="#780650"/>
<rect width="22.5625" height="22.5625" transform="translate(157.938 315.875)" fill="#070E27"/>
<rect width="22.5625" height="22.5625" transform="translate(180.5)" fill="#070E27"/>
<rect width="22.5625" height="22.5625" transform="translate(180.5 180.5)" fill="#FFD8BF"/>
<rect width="22.5625" height="22.5625" transform="translate(180.5 90.25)" fill="#FFC53D"/>
<rect width="22.5625" height="22.5625" transform="translate(180.5 270.75)" fill="#2F54EB"/>
<rect width="22.5625" height="22.5625" transform="translate(180.5 45.125)" fill="#070E27"/>
<rect width="22.5625" height="22.5625" transform="translate(180.5 225.625)" fill="#FFD8BF"/>
<rect width="22.5625" height="22.5625" transform="translate(180.5 135.375)" fill="#780650"/>
<rect width="22.5625" height="22.5625" transform="translate(180.5 315.875)" fill="#070E27"/>
<rect width="22.5625" height="22.5625" transform="translate(203.062)" fill="#070E27"/>
<rect width="22.5625" height="22.5625" transform="translate(203.062 180.5)" fill="#FFD8BF"/>
<rect width="22.5625" height="22.5625" transform="translate(203.062 90.25)" fill="#FFC53D"/>
<rect width="22.5625" height="22.5625" transform="translate(203.062 270.75)" fill="#2F54EB"/>
<rect width="22.5625" height="22.5625" transform="translate(203.062 45.125)" fill="#070E27"/>
<rect width="22.5625" height="22.5625" transform="translate(203.062 225.625)" fill="#FFD8BF"/>
<rect width="22.5625" height="22.5625" transform="translate(203.062 135.375)" fill="#780650"/>
<rect width="22.5625" height="22.5625" transform="translate(203.062 315.875)" fill="#061178"/>
<rect width="22.5625" height="22.5625" transform="translate(225.625)" fill="#070E27"/>
<rect width="22.5625" height="22.5625" transform="translate(225.625 180.5)" fill="#FFD8BF"/>
<rect width="22.5625" height="22.5625" transform="translate(225.625 90.25)" fill="#FFC53D"/>
<rect width="22.5625" height="22.5625" transform="translate(225.625 270.75)" fill="#2F54EB"/>
<rect width="22.5625" height="22.5625" transform="translate(225.625 45.125)" fill="#070E27"/>
<rect width="22.5625" height="22.5625" transform="translate(225.625 225.625)" fill="#2F54EB"/>
<rect width="22.5625" height="22.5625" transform="translate(225.625 135.375)" fill="#520339"/>
<rect width="22.5625" height="22.5625" transform="translate(225.625 315.875)" fill="#061178"/>
<rect width="22.5625" height="22.5625" transform="translate(248.188)" fill="#070E27"/>
<rect width="22.5625" height="22.5625" transform="translate(248.188 180.5)" fill="#FFD8BF"/>
<rect width="22.5625" height="22.5625" transform="translate(248.188 90.25)" fill="#FFC53D"/>
<rect width="22.5625" height="22.5625" transform="translate(248.188 270.75)" fill="#597EF7"/>
<rect width="22.5625" height="22.5625" transform="translate(248.188 45.125)" fill="#070E27"/>
<rect width="22.5625" height="22.5625" transform="translate(248.188 225.625)" fill="#2F54EB"/>
<rect width="22.5625" height="22.5625" transform="translate(248.188 135.375)" fill="#780650"/>
<rect width="22.5625" height="22.5625" transform="translate(248.188 315.875)" fill="#070E27"/>
<rect width="22.5625" height="22.5625" transform="translate(270.75)" fill="#070E27"/>
<rect width="22.5625" height="22.5625" transform="translate(270.75 180.5)" fill="#070E27"/>
<rect width="22.5625" height="22.5625" transform="translate(270.75 90.25)" fill="#070E27"/>
<rect width="22.5625" height="22.5625" transform="translate(270.75 270.75)" fill="#FFD8BF"/>
<rect width="22.5625" height="22.5625" transform="translate(270.75 45.125)" fill="#070E27"/>
<rect width="22.5625" height="22.5625" transform="translate(270.75 225.625)" fill="#070E27"/>
<rect width="22.5625" height="22.5625" transform="translate(270.75 135.375)" fill="#070E27"/>
<rect width="22.5625" height="22.5625" transform="translate(270.75 315.875)" fill="#070E27"/>
<rect width="22.5625" height="22.5625" transform="translate(293.312)" fill="#070E27"/>
<rect width="22.5625" height="22.5625" transform="translate(293.312 180.5)" fill="#070E27"/>
<rect width="22.5625" height="22.5625" transform="translate(293.312 90.25)" fill="#070E27"/>
<rect width="22.5625" height="22.5625" transform="translate(293.312 270.75)" fill="#070E27"/>
<rect width="22.5625" height="22.5625" transform="translate(293.312 45.125)" fill="#070E27"/>
<rect width="22.5625" height="22.5625" transform="translate(293.312 225.625)" fill="#070E27"/>
<rect width="22.5625" height="22.5625" transform="translate(293.312 135.375)" fill="#070E27"/>
<rect width="22.5625" height="22.5625" transform="translate(293.312 315.875)" fill="#070E27"/>
<rect width="22.5625" height="22.5625" transform="translate(315.875)" fill="#070E27"/>
<rect width="22.5625" height="22.5625" transform="translate(315.875 180.5)" fill="#070E27"/>
<rect width="22.5625" height="22.5625" transform="translate(315.875 90.25)" fill="#070E27"/>
<rect width="22.5625" height="22.5625" transform="translate(315.875 270.75)" fill="#070E27"/>
<rect width="22.5625" height="22.5625" transform="translate(315.875 45.125)" fill="#070E27"/>
<rect width="22.5625" height="22.5625" transform="translate(315.875 225.625)" fill="#070E27"/>
<rect width="22.5625" height="22.5625" transform="translate(315.875 135.375)" fill="#070E27"/>
<rect width="22.5625" height="22.5625" transform="translate(315.875 315.875)" fill="#070E27"/>
<rect width="22.5625" height="22.5625" transform="translate(338.438)" fill="#070E27"/>
<rect width="22.5625" height="22.5625" transform="translate(338.438 180.5)" fill="#070E27"/>
<rect width="22.5625" height="22.5625" transform="translate(338.438 90.25)" fill="#070E27"/>
<rect width="22.5625" height="22.5625" transform="translate(338.438 270.75)" fill="#070E27"/>
<rect width="22.5625" height="22.5625" transform="translate(338.438 45.125)" fill="#070E27"/>
<rect width="22.5625" height="22.5625" transform="translate(338.438 225.625)" fill="#070E27"/>
<rect width="22.5625" height="22.5625" transform="translate(338.438 135.375)" fill="#070E27"/>
<rect width="22.5625" height="22.5625" transform="translate(338.438 315.875)" fill="#070E27"/>
<rect width="22.5625" height="22.5625" transform="translate(45.125 22.5625)" fill="#070E27"/>
<rect width="22.5625" height="22.5625" transform="translate(45.125 203.062)" fill="#070E27"/>
<rect width="22.5625" height="22.5625" transform="translate(45.125 112.812)" fill="#070E27"/>
<rect width="22.5625" height="22.5625" transform="translate(45.125 293.312)" fill="#070E27"/>
<rect width="22.5625" height="22.5625" transform="translate(45.125 67.6875)" fill="#070E27"/>
<rect width="22.5625" height="22.5625" transform="translate(45.125 248.188)" fill="#070E27"/>
<rect width="22.5625" height="22.5625" transform="translate(45.125 157.938)" fill="#070E27"/>
<rect width="22.5625" height="22.5625" transform="translate(45.125 338.438)" fill="#070E27"/>
<rect width="22.5625" height="22.5625" transform="translate(67.6875 22.5625)" fill="#070E27"/>
<rect width="22.5625" height="22.5625" transform="translate(67.6875 203.062)" fill="#070E27"/>
<rect width="22.5625" height="22.5625" transform="translate(67.6875 112.812)" fill="#3F6600"/>
<rect width="22.5625" height="22.5625" transform="translate(67.6875 293.312)" fill="#E5E5E5"/>
<rect width="22.5625" height="22.5625" transform="translate(67.6875 67.6875)" fill="#070E27"/>
<rect width="22.5625" height="22.5625" transform="translate(67.6875 248.188)" fill="#120338"/>
<rect width="22.5625" height="22.5625" transform="translate(67.6875 157.938)" fill="#FFD8BF"/>
<rect width="22.5625" height="22.5625" transform="translate(67.6875 338.438)" fill="#070E27"/>
<rect width="22.5625" height="22.5625" transform="translate(90.25 22.5625)" fill="#070E27"/>
<rect width="22.5625" height="22.5625" transform="translate(90.25 203.062)" fill="#030852"/>
<rect width="22.5625" height="22.5625" transform="translate(90.25 112.812)" fill="#3F6600"/>
<rect width="22.5625" height="22.5625" transform="translate(90.25 293.312)" fill="#030852"/>
<rect width="22.5625" height="22.5625" transform="translate(90.25 67.6875)" fill="#FAAD14"/>
<rect width="22.5625" height="22.5625" transform="translate(90.25 248.188)" fill="#061178"/>
<rect width="22.5625" height="22.5625" transform="translate(90.25 157.938)" fill="#FFD8BF"/>
<rect width="22.5625" height="22.5625" transform="translate(90.25 338.438)" fill="#070E27"/>
<rect width="22.5625" height="22.5625" transform="translate(112.812 22.5625)" fill="#070E27"/>
<rect width="22.5625" height="22.5625" transform="translate(112.812 203.062)" fill="#2F54EB"/>
<rect width="22.5625" height="22.5625" transform="translate(112.812 112.812)" fill="#3F6600"/>
<rect width="22.5625" height="22.5625" transform="translate(112.812 293.312)" fill="black"/>
<rect width="22.5625" height="22.5625" transform="translate(112.812 67.6875)" fill="#FFC53D"/>
<rect width="22.5625" height="22.5625" transform="translate(112.812 248.188)" fill="#597EF7"/>
<rect width="22.5625" height="22.5625" transform="translate(112.812 157.938)" fill="#780650"/>
<rect width="22.5625" height="22.5625" transform="translate(112.812 338.438)" fill="#10239E"/>
<rect width="22.5625" height="22.5625" transform="translate(135.375 22.5625)" fill="#070E27"/>
<rect width="22.5625" height="22.5625" transform="translate(135.375 203.062)" fill="#FFD8BF"/>
<rect width="22.5625" height="22.5625" transform="translate(135.375 112.812)" fill="#7CB305"/>
<rect width="22.5625" height="22.5625" transform="translate(135.375 293.312)" fill="#061178"/>
<rect width="22.5625" height="22.5625" transform="translate(135.375 67.6875)" fill="#FFC53D"/>
<rect width="22.5625" height="22.5625" transform="translate(135.375 248.188)" fill="#22075E"/>
<rect width="22.5625" height="22.5625" transform="translate(135.375 157.938)" fill="#520339"/>
<rect width="22.5625" height="22.5625" transform="translate(135.375 338.438)" fill="#10239E"/>
<rect width="22.5625" height="22.5625" transform="translate(157.938 22.5625)" fill="#070E27"/>
<rect width="22.5625" height="22.5625" transform="translate(157.938 203.062)" fill="#FFD8BF"/>
<rect width="22.5625" height="22.5625" transform="translate(157.938 112.812)" fill="#7CB305"/>
<rect width="22.5625" height="22.5625" transform="translate(157.938 293.312)" fill="#061178"/>
<rect width="22.5625" height="22.5625" transform="translate(157.938 67.6875)" fill="#FFC53D"/>
<rect width="22.5625" height="22.5625" transform="translate(157.938 248.188)" fill="#2F54EB"/>
<rect width="22.5625" height="22.5625" transform="translate(157.938 157.938)" fill="#780650"/>
<rect width="22.5625" height="22.5625" transform="translate(157.938 338.438)" fill="#070E27"/>
<rect width="22.5625" height="22.5625" transform="translate(180.5 22.5625)" fill="#070E27"/>
<rect width="22.5625" height="22.5625" transform="translate(180.5 203.062)" fill="#FFBB96"/>
<rect width="22.5625" height="22.5625" transform="translate(180.5 112.812)" fill="#7CB305"/>
<rect width="22.5625" height="22.5625" transform="translate(180.5 293.312)" fill="#061178"/>
<rect width="22.5625" height="22.5625" transform="translate(180.5 67.6875)" fill="#FFC53D"/>
<rect width="22.5625" height="22.5625" transform="translate(180.5 248.188)" fill="#2F54EB"/>
<rect width="22.5625" height="22.5625" transform="translate(180.5 157.938)" fill="#FFD8BF"/>
<rect width="22.5625" height="22.5625" transform="translate(180.5 338.438)" fill="#070E27"/>
<rect width="22.5625" height="22.5625" transform="translate(203.062 22.5625)" fill="#070E27"/>
<rect width="22.5625" height="22.5625" transform="translate(203.062 203.062)" fill="#FFD8BF"/>
<rect width="22.5625" height="22.5625" transform="translate(203.062 112.812)" fill="#7CB305"/>
<rect width="22.5625" height="22.5625" transform="translate(203.062 293.312)" fill="#061178"/>
<rect width="22.5625" height="22.5625" transform="translate(203.062 67.6875)" fill="#FFC53D"/>
<rect width="22.5625" height="22.5625" transform="translate(203.062 248.188)" fill="#2F54EB"/>
<rect width="22.5625" height="22.5625" transform="translate(203.062 157.938)" fill="#780650"/>
<rect width="22.5625" height="22.5625" transform="translate(203.062 338.438)" fill="#10239E"/>
<rect width="22.5625" height="22.5625" transform="translate(225.625 22.5625)" fill="#070E27"/>
<rect width="22.5625" height="22.5625" transform="translate(225.625 203.062)" fill="#FFD8BF"/>
<rect width="22.5625" height="22.5625" transform="translate(225.625 112.812)" fill="#7CB305"/>
<rect width="22.5625" height="22.5625" transform="translate(225.625 293.312)" fill="#061178"/>
<rect width="22.5625" height="22.5625" transform="translate(225.625 67.6875)" fill="#FFD666"/>
<rect width="22.5625" height="22.5625" transform="translate(225.625 248.188)" fill="#2F54EB"/>
<rect width="22.5625" height="22.5625" transform="translate(225.625 157.938)" fill="#520339"/>
<rect width="22.5625" height="22.5625" transform="translate(225.625 338.438)" fill="#10239E"/>
<rect width="22.5625" height="22.5625" transform="translate(248.188 22.5625)" fill="#070E27"/>
<rect width="22.5625" height="22.5625" transform="translate(248.188 203.062)" fill="#070E27"/>
<rect width="22.5625" height="22.5625" transform="translate(248.188 112.812)" fill="#7CB305"/>
<rect width="22.5625" height="22.5625" transform="translate(248.188 293.312)" fill="#070E27"/>
<rect width="22.5625" height="22.5625" transform="translate(248.188 67.6875)" fill="#070E27"/>
<rect width="22.5625" height="22.5625" transform="translate(248.188 248.188)" fill="#597EF7"/>
<rect width="22.5625" height="22.5625" transform="translate(248.188 157.938)" fill="#780650"/>
<rect width="22.5625" height="22.5625" transform="translate(248.188 338.438)" fill="#070E27"/>
<rect width="22.5625" height="22.5625" transform="translate(270.75 22.5625)" fill="#070E27"/>
<rect width="22.5625" height="22.5625" transform="translate(270.75 203.062)" fill="#070E27"/>
<rect width="22.5625" height="22.5625" transform="translate(270.75 112.812)" fill="#070E27"/>
<rect width="22.5625" height="22.5625" transform="translate(270.75 293.312)" fill="#070E27"/>
<rect width="22.5625" height="22.5625" transform="translate(270.75 67.6875)" fill="#070E27"/>
<rect width="22.5625" height="22.5625" transform="translate(270.75 248.188)" fill="#070E27"/>
<rect width="22.5625" height="22.5625" transform="translate(270.75 157.938)" fill="#070E27"/>
<rect width="22.5625" height="22.5625" transform="translate(270.75 338.438)" fill="#070E27"/>
<rect width="22.5625" height="22.5625" transform="translate(293.312 22.5625)" fill="#070E27"/>
<rect width="22.5625" height="22.5625" transform="translate(293.312 203.062)" fill="#070E27"/>
<rect width="22.5625" height="22.5625" transform="translate(293.312 112.812)" fill="#070E27"/>
<rect width="22.5625" height="22.5625" transform="translate(293.312 293.312)" fill="#070E27"/>
<rect width="22.5625" height="22.5625" transform="translate(293.312 67.6875)" fill="#070E27"/>
<rect width="22.5625" height="22.5625" transform="translate(293.312 248.188)" fill="#070E27"/>
<rect width="22.5625" height="22.5625" transform="translate(293.312 157.938)" fill="#070E27"/>
<rect width="22.5625" height="22.5625" transform="translate(293.312 338.438)" fill="#070E27"/>
<rect width="22.5625" height="22.5625" transform="translate(315.875 22.5625)" fill="#070E27"/>
<rect width="22.5625" height="22.5625" transform="translate(315.875 203.062)" fill="#070E27"/>
<rect width="22.5625" height="22.5625" transform="translate(315.875 112.812)" fill="#070E27"/>
<rect width="22.5625" height="22.5625" transform="translate(315.875 293.312)" fill="#070E27"/>
<rect width="22.5625" height="22.5625" transform="translate(315.875 67.6875)" fill="#070E27"/>
<rect width="22.5625" height="22.5625" transform="translate(315.875 248.188)" fill="#070E27"/>
<rect width="22.5625" height="22.5625" transform="translate(315.875 157.938)" fill="#070E27"/>
<rect width="22.5625" height="22.5625" transform="translate(315.875 338.438)" fill="#070E27"/>
<rect width="22.5625" height="22.5625" transform="translate(338.438 22.5625)" fill="#070E27"/>
<rect width="22.5625" height="22.5625" transform="translate(338.438 203.062)" fill="#070E27"/>
<rect width="22.5625" height="22.5625" transform="translate(338.438 112.812)" fill="#070E27"/>
<rect width="22.5625" height="22.5625" transform="translate(338.438 293.312)" fill="#070E27"/>
<rect width="22.5625" height="22.5625" transform="translate(338.438 67.6875)" fill="#070E27"/>
<rect width="22.5625" height="22.5625" transform="translate(338.438 248.188)" fill="#070E27"/>
<rect width="22.5625" height="22.5625" transform="translate(338.438 157.938)" fill="#070E27"/>
<rect width="22.5625" height="22.5625" transform="translate(338.438 338.438)" fill="#070E27"/>
<rect width="22.5625" height="22.5625" transform="translate(22.5625)" fill="#070E27"/>
<rect width="22.5625" height="22.5625" transform="translate(22.5625 180.5)" fill="#070E27"/>
<rect width="22.5625" height="22.5625" transform="translate(22.5625 90.25)" fill="#070E27"/>
<rect width="22.5625" height="22.5625" transform="translate(22.5625 270.75)" fill="#070E27"/>
<rect width="22.5625" height="22.5625" transform="translate(22.5625 45.125)" fill="#070E27"/>
<rect width="22.5625" height="22.5625" transform="translate(22.5625 225.625)" fill="#070E27"/>
<rect width="22.5625" height="22.5625" transform="translate(22.5625 135.375)" fill="#070E27"/>
<rect width="22.5625" height="22.5625" transform="translate(22.5625 315.875)" fill="#070E27"/>
<rect width="22.5625" height="22.5625" transform="translate(22.5625 22.5625)" fill="#070E27"/>
<rect width="22.5625" height="22.5625" transform="translate(22.5625 203.062)" fill="#070E27"/>
<rect width="22.5625" height="22.5625" transform="translate(22.5625 112.812)" fill="#070E27"/>
<rect width="22.5625" height="22.5625" transform="translate(22.5625 293.312)" fill="#070E27"/>
<rect width="22.5625" height="22.5625" transform="translate(22.5625 67.6875)" fill="#070E27"/>
<rect width="22.5625" height="22.5625" transform="translate(22.5625 248.188)" fill="#070E27"/>
<rect width="22.5625" height="22.5625" transform="translate(22.5625 157.938)" fill="#070E27"/>
<rect width="22.5625" height="22.5625" transform="translate(22.5625 338.438)" fill="#070E27"/>
</g>
<defs>
<clipPath id="clip0_2_681">
<rect width="374" height="388" fill="white"/>
</clipPath>
</defs>
</svg>
