<svg width="47" height="47" viewBox="0 0 47 47" fill="none" xmlns="http://www.w3.org/2000/svg">
<path d="M20.5625 13.7083C17.3178 13.7083 14.6875 16.3386 14.6875 19.5833C14.6875 22.8281 17.3178 25.4583 20.5625 25.4583C23.8073 25.4583 26.4375 22.8281 26.4375 19.5833C26.4375 16.3386 23.8073 13.7083 20.5625 13.7083ZM17.625 19.5833C17.625 17.961 18.9402 16.6458 20.5625 16.6458C22.1848 16.6458 23.5 17.961 23.5 19.5833C23.5 21.2056 22.1848 22.5208 20.5625 22.5208C18.9402 22.5208 17.625 21.2056 17.625 19.5833ZM3.91667 12.2396C3.91667 9.80606 5.88942 7.83331 8.32292 7.83331H32.8021C35.2355 7.83331 37.2083 9.80606 37.2083 12.2396V21.5416H34.2708V16.6458H32.8021C30.3687 16.6458 28.3958 14.6731 28.3958 12.2396V10.7708H12.7292V12.2396C12.7292 14.6731 10.7564 16.6458 8.32292 16.6458H6.85417V22.5208H8.32292C10.7564 22.5208 12.7292 24.4936 12.7292 26.9271V28.3958H27.4167V31.3333H8.32292C5.88942 31.3333 3.91667 29.3605 3.91667 26.9271V12.2396ZM8.32292 10.7708C7.51176 10.7708 6.85417 11.4284 6.85417 12.2396V13.7083H8.32292C9.13408 13.7083 9.79167 13.0507 9.79167 12.2396V10.7708H8.32292ZM34.2708 13.7083V12.2396C34.2708 11.4284 33.6132 10.7708 32.8021 10.7708H31.3333V12.2396C31.3333 13.0507 31.9909 13.7083 32.8021 13.7083H34.2708ZM6.85417 26.9271C6.85417 27.7382 7.51176 28.3958 8.32292 28.3958H9.79167V26.9271C9.79167 26.1159 9.13408 25.4583 8.32292 25.4583H6.85417V26.9271ZM8.61935 34.2708H27.4167V37.2083H13.7084C11.5338 37.2083 9.63516 36.0268 8.61935 34.2708ZM43.0833 21.5416V17.625C43.0833 15.4504 41.9019 13.5518 40.1458 12.536V21.5416H43.0833ZM32.3125 23.5C30.6902 23.5 29.375 24.8152 29.375 26.4375V42.1041C29.375 43.7264 30.6902 45.0416 32.3125 45.0416H42.1038C43.7261 45.0416 45.0413 43.7264 45.0413 42.1041V26.4375C45.0413 24.8152 43.7261 23.5 42.1038 23.5H32.3125ZM33.2917 32.3125H35.2496C35.7903 32.3125 36.2288 32.7509 36.2288 33.2916C36.2288 33.8323 35.7903 34.2708 35.2496 34.2708H33.2917C32.751 34.2708 32.3125 33.8323 32.3125 33.2916C32.3125 32.7509 32.751 32.3125 33.2917 32.3125ZM39.1667 32.3125H41.125C41.6657 32.3125 42.1042 32.7509 42.1042 33.2916C42.1042 33.8323 41.6657 34.2708 41.125 34.2708H39.1667C38.626 34.2708 38.1875 33.8323 38.1875 33.2916C38.1875 32.7509 38.626 32.3125 39.1667 32.3125ZM33.2917 36.2291H35.2496C35.7903 36.2291 36.2288 36.6676 36.2288 37.2083C36.2288 37.749 35.7903 38.1875 35.2496 38.1875H33.2917C32.751 38.1875 32.3125 37.749 32.3125 37.2083C32.3125 36.6676 32.751 36.2291 33.2917 36.2291ZM39.1667 36.2291H41.125C41.6657 36.2291 42.1042 36.6676 42.1042 37.2083C42.1042 37.749 41.6657 38.1875 41.125 38.1875H39.1667C38.626 38.1875 38.1875 37.749 38.1875 37.2083C38.1875 36.6676 38.626 36.2291 39.1667 36.2291ZM33.2917 40.1458H35.2496C35.7903 40.1458 36.2288 40.5843 36.2288 41.125C36.2288 41.6657 35.7903 42.1041 35.2496 42.1041H33.2917C32.751 42.1041 32.3125 41.6657 32.3125 41.125C32.3125 40.5843 32.751 40.1458 33.2917 40.1458ZM39.1667 40.1458H41.125C41.6657 40.1458 42.1042 40.5843 42.1042 41.125C42.1042 41.6657 41.6657 42.1041 41.125 42.1041H39.1667C38.626 42.1041 38.1875 41.6657 38.1875 41.125C38.1875 40.5843 38.626 40.1458 39.1667 40.1458ZM32.3123 27.4164C32.3123 26.8758 32.7508 26.4373 33.2915 26.4373H41.1248C41.6655 26.4373 42.104 26.8758 42.104 27.4164V29.3748C42.104 29.9155 41.6655 30.3539 41.1248 30.3539H33.2915C32.7508 30.3539 32.3123 29.9155 32.3123 29.3748V27.4164Z" fill="#7E8BB6"/>
</svg>
