<svg width="376" height="386" viewBox="0 0 376 386" fill="none" xmlns="http://www.w3.org/2000/svg">
<rect width="376" height="386" transform="matrix(-1 0 0 1 376 0)" fill="#070E27"/>
<rect width="22.5" height="22.5" transform="matrix(-1 0 0 1 376 0)" fill="#070E27"/>
<rect width="22.5" height="22.5" transform="matrix(-1 0 0 1 376 180)" fill="#070E27"/>
<rect width="22.5" height="22.5" transform="matrix(-1 0 0 1 376 90)" fill="#070E27"/>
<rect width="22.5" height="22.5" transform="matrix(-1 0 0 1 376 270)" fill="#070E27"/>
<rect width="22.5" height="22.5" transform="matrix(-1 0 0 1 376 45)" fill="#070E27"/>
<rect width="22.5" height="22.5" transform="matrix(-1 0 0 1 376 225)" fill="#070E27"/>
<rect width="22.5" height="22.5" transform="matrix(-1 0 0 1 376 135)" fill="#070E27"/>
<rect width="22.5" height="22.5" transform="matrix(-1 0 0 1 376 315)" fill="#070E27"/>
<rect width="22.5" height="22.5" transform="matrix(-1 0 0 1 376 22.5)" fill="#070E27"/>
<rect width="22.5" height="22.5" transform="matrix(-1 0 0 1 376 202.5)" fill="#070E27"/>
<rect width="22.5" height="22.5" transform="matrix(-1 0 0 1 376 112.5)" fill="#070E27"/>
<rect width="22.5" height="22.5" transform="matrix(-1 0 0 1 376 292.5)" fill="#070E27"/>
<rect width="22.5" height="22.5" transform="matrix(-1 0 0 1 376 67.5)" fill="#070E27"/>
<rect width="22.5" height="22.5" transform="matrix(-1 0 0 1 376 247.5)" fill="#070E27"/>
<rect width="22.5" height="22.5" transform="matrix(-1 0 0 1 376 157.5)" fill="#070E27"/>
<rect width="22.5" height="22.5" transform="matrix(-1 0 0 1 376 337.5)" fill="#070E27"/>
<rect width="22.5" height="22.5" transform="matrix(-1 0 0 1 331 0)" fill="#070E27"/>
<rect width="22.5" height="22.5" transform="matrix(-1 0 0 1 331 180)" fill="#070E27"/>
<rect width="22.5" height="22.5" transform="matrix(-1 0 0 1 331 90)" fill="#070E27"/>
<rect width="22.5" height="22.5" transform="matrix(-1 0 0 1 331 270)" fill="#070E27"/>
<rect width="22.5" height="22.5" transform="matrix(-1 0 0 1 331 45)" fill="#070E27"/>
<rect width="22.5" height="22.5" transform="matrix(-1 0 0 1 331 225)" fill="#070E27"/>
<rect width="22.5" height="22.5" transform="matrix(-1 0 0 1 331 135)" fill="#070E27"/>
<rect width="22.5" height="22.5" transform="matrix(-1 0 0 1 331 315)" fill="#070E27"/>
<rect width="22.5" height="22.5" transform="matrix(-1 0 0 1 308.5 0)" fill="#070E27"/>
<rect width="22.5" height="22.5" transform="matrix(-1 0 0 1 308.5 180)" fill="#070E27"/>
<rect width="22.5" height="22.5" transform="matrix(-1 0 0 1 308.5 90)" fill="#070E27"/>
<rect width="22.5" height="22.5" transform="matrix(-1 0 0 1 308.5 270)" fill="#5C0011"/>
<rect width="22.5" height="22.5" transform="matrix(-1 0 0 1 308.5 45)" fill="#070E27"/>
<rect width="22.5" height="22.5" transform="matrix(-1 0 0 1 308.5 225)" fill="#5C0011"/>
<rect width="22.5" height="22.5" transform="matrix(-1 0 0 1 308.5 135)" fill="#CCCCCC"/>
<rect width="22.5" height="22.5" transform="matrix(-1 0 0 1 308.5 315)" fill="#070E27"/>
<rect width="22.5" height="22.5" transform="matrix(-1 0 0 1 286 0)" fill="#070E27"/>
<rect width="22.5" height="22.5" transform="matrix(-1 0 0 1 286 180)" fill="#CCCCCC"/>
<rect width="22.5" height="22.5" transform="matrix(-1 0 0 1 286 90)" fill="#CCCCCC"/>
<rect width="22.5" height="22.5" transform="matrix(-1 0 0 1 286 270)" fill="#820014"/>
<rect width="22.5" height="22.5" transform="matrix(-1 0 0 1 286 45)" fill="#070E27"/>
<rect width="22.5" height="22.5" transform="matrix(-1 0 0 1 286 225)" fill="#F5222D"/>
<rect width="22.5" height="22.5" transform="matrix(-1 0 0 1 286 135)" fill="#CCCCCC"/>
<rect width="22.5" height="22.5" transform="matrix(-1 0 0 1 286 315)" fill="#070E27"/>
<rect width="22.5" height="22.5" transform="matrix(-1 0 0 1 263.5 0)" fill="#070E27"/>
<rect width="22.5" height="22.5" transform="matrix(-1 0 0 1 263.5 180)" fill="#CCCCCC"/>
<rect width="22.5" height="22.5" transform="matrix(-1 0 0 1 263.5 90)" fill="#CCCCCC"/>
<rect width="22.5" height="22.5" transform="matrix(-1 0 0 1 263.5 270)" fill="#FF4D4F"/>
<rect width="22.5" height="22.5" transform="matrix(-1 0 0 1 263.5 45)" fill="#070E27"/>
<rect width="22.5" height="22.5" transform="matrix(-1 0 0 1 263.5 225)" fill="#820014"/>
<rect width="22.5" height="22.5" transform="matrix(-1 0 0 1 263.5 135)" fill="black"/>
<rect width="22.5" height="22.5" transform="matrix(-1 0 0 1 263.5 315)" fill="black"/>
<rect width="22.5" height="22.5" transform="matrix(-1 0 0 1 241 0)" fill="#070E27"/>
<rect width="22.5" height="22.5" transform="matrix(-1 0 0 1 241 180)" fill="#CCCCCC"/>
<rect width="22.5" height="22.5" transform="matrix(-1 0 0 1 241 90)" fill="#CCCCCC"/>
<rect width="22.5" height="22.5" transform="matrix(-1 0 0 1 241 270)" fill="#FF4D4F"/>
<rect width="22.5" height="22.5" transform="matrix(-1 0 0 1 241 45)" fill="#070E27"/>
<rect width="22.5" height="22.5" transform="matrix(-1 0 0 1 241 225)" fill="#F5222D"/>
<rect width="22.5" height="22.5" transform="matrix(-1 0 0 1 241 135)" fill="black"/>
<rect width="22.5" height="22.5" transform="matrix(-1 0 0 1 241 315)" fill="#820014"/>
<rect width="22.5" height="22.5" transform="matrix(-1 0 0 1 218.5 0)" fill="#070E27"/>
<rect width="22.5" height="22.5" transform="matrix(-1 0 0 1 218.5 180)" fill="#CCCCCC"/>
<rect width="22.5" height="22.5" transform="matrix(-1 0 0 1 218.5 90)" fill="#CCCCCC"/>
<rect width="22.5" height="22.5" transform="matrix(-1 0 0 1 218.5 270)" fill="#FFD8BF"/>
<rect width="22.5" height="22.5" transform="matrix(-1 0 0 1 218.5 45)" fill="#070E27"/>
<rect width="22.5" height="22.5" transform="matrix(-1 0 0 1 218.5 225)" fill="#FFD8BF"/>
<rect width="22.5" height="22.5" transform="matrix(-1 0 0 1 218.5 135)" fill="black"/>
<rect width="22.5" height="22.5" transform="matrix(-1 0 0 1 218.5 315)" fill="#070E27"/>
<rect width="22.5" height="22.5" transform="matrix(-1 0 0 1 196 0)" fill="#070E27"/>
<rect width="22.5" height="22.5" transform="matrix(-1 0 0 1 196 180)" fill="#CCCCCC"/>
<rect width="22.5" height="22.5" transform="matrix(-1 0 0 1 196 90)" fill="#CCCCCC"/>
<rect width="22.5" height="22.5" transform="matrix(-1 0 0 1 196 270)" fill="#F5222D"/>
<rect width="22.5" height="22.5" transform="matrix(-1 0 0 1 196 45)" fill="#070E27"/>
<rect width="22.5" height="22.5" transform="matrix(-1 0 0 1 196 225)" fill="#FFD8BF"/>
<rect width="22.5" height="22.5" transform="matrix(-1 0 0 1 196 135)" fill="black"/>
<rect width="22.5" height="22.5" transform="matrix(-1 0 0 1 196 315)" fill="#070E27"/>
<rect width="22.5" height="22.5" transform="matrix(-1 0 0 1 173.5 0)" fill="#070E27"/>
<rect width="22.5" height="22.5" transform="matrix(-1 0 0 1 173.5 180)" fill="#CCCCCC"/>
<rect width="22.5" height="22.5" transform="matrix(-1 0 0 1 173.5 90)" fill="#CCCCCC"/>
<rect width="22.5" height="22.5" transform="matrix(-1 0 0 1 173.5 270)" fill="#F5222D"/>
<rect width="22.5" height="22.5" transform="matrix(-1 0 0 1 173.5 45)" fill="#070E27"/>
<rect width="22.5" height="22.5" transform="matrix(-1 0 0 1 173.5 225)" fill="#FFD8BF"/>
<rect width="22.5" height="22.5" transform="matrix(-1 0 0 1 173.5 135)" fill="black"/>
<rect width="22.5" height="22.5" transform="matrix(-1 0 0 1 173.5 315)" fill="#820014"/>
<rect width="22.5" height="22.5" transform="matrix(-1 0 0 1 151 0)" fill="#070E27"/>
<rect width="22.5" height="22.5" transform="matrix(-1 0 0 1 151 180)" fill="#CCCCCC"/>
<rect width="22.5" height="22.5" transform="matrix(-1 0 0 1 151 90)" fill="#CCCCCC"/>
<rect width="22.5" height="22.5" transform="matrix(-1 0 0 1 151 270)" fill="#F5222D"/>
<rect width="22.5" height="22.5" transform="matrix(-1 0 0 1 151 45)" fill="#070E27"/>
<rect width="22.5" height="22.5" transform="matrix(-1 0 0 1 151 225)" fill="#F5222D"/>
<rect width="22.5" height="22.5" transform="matrix(-1 0 0 1 151 135)" fill="black"/>
<rect width="22.5" height="22.5" transform="matrix(-1 0 0 1 151 315)" fill="#820014"/>
<rect width="22.5" height="22.5" transform="matrix(-1 0 0 1 128.5 0)" fill="#070E27"/>
<rect width="22.5" height="22.5" transform="matrix(-1 0 0 1 128.5 180)" fill="#CCCCCC"/>
<rect width="22.5" height="22.5" transform="matrix(-1 0 0 1 128.5 90)" fill="#B2B2B2"/>
<rect width="22.5" height="22.5" transform="matrix(-1 0 0 1 128.5 270)" fill="#FF4D4F"/>
<rect width="22.5" height="22.5" transform="matrix(-1 0 0 1 128.5 45)" fill="#070E27"/>
<rect width="22.5" height="22.5" transform="matrix(-1 0 0 1 128.5 225)" fill="#F5222D"/>
<rect width="22.5" height="22.5" transform="matrix(-1 0 0 1 128.5 135)" fill="black"/>
<rect width="22.5" height="22.5" transform="matrix(-1 0 0 1 128.5 315)" fill="#070E27"/>
<rect width="22.5" height="22.5" transform="matrix(-1 0 0 1 106 0)" fill="#070E27"/>
<rect width="22.5" height="22.5" transform="matrix(-1 0 0 1 106 180)" fill="#CCCCCC"/>
<rect width="22.5" height="22.5" transform="matrix(-1 0 0 1 106 90)" fill="#070E27"/>
<rect width="22.5" height="22.5" transform="matrix(-1 0 0 1 106 270)" fill="#FFD8BF"/>
<rect width="22.5" height="22.5" transform="matrix(-1 0 0 1 106 45)" fill="#070E27"/>
<rect width="22.5" height="22.5" transform="matrix(-1 0 0 1 106 225)" fill="#070E27"/>
<rect width="22.5" height="22.5" transform="matrix(-1 0 0 1 106 135)" fill="#CCCCCC"/>
<rect width="22.5" height="22.5" transform="matrix(-1 0 0 1 106 315)" fill="#070E27"/>
<rect width="22.5" height="22.5" transform="matrix(-1 0 0 1 83.5 0)" fill="#070E27"/>
<rect width="22.5" height="22.5" transform="matrix(-1 0 0 1 83.5 180)" fill="#070E27"/>
<rect width="22.5" height="22.5" transform="matrix(-1 0 0 1 83.5 90)" fill="#070E27"/>
<rect width="22.5" height="22.5" transform="matrix(-1 0 0 1 83.5 270)" fill="#070E27"/>
<rect width="22.5" height="22.5" transform="matrix(-1 0 0 1 83.5 45)" fill="#070E27"/>
<rect width="22.5" height="22.5" transform="matrix(-1 0 0 1 83.5 225)" fill="#070E27"/>
<rect width="22.5" height="22.5" transform="matrix(-1 0 0 1 83.5 135)" fill="#070E27"/>
<rect width="22.5" height="22.5" transform="matrix(-1 0 0 1 83.5 315)" fill="#070E27"/>
<rect width="22.5" height="22.5" transform="matrix(-1 0 0 1 61 0)" fill="#070E27"/>
<rect width="22.5" height="22.5" transform="matrix(-1 0 0 1 61 180)" fill="#070E27"/>
<rect width="22.5" height="22.5" transform="matrix(-1 0 0 1 61 90)" fill="#070E27"/>
<rect width="22.5" height="22.5" transform="matrix(-1 0 0 1 61 270)" fill="#070E27"/>
<rect width="22.5" height="22.5" transform="matrix(-1 0 0 1 61 45)" fill="#070E27"/>
<rect width="22.5" height="22.5" transform="matrix(-1 0 0 1 61 225)" fill="#070E27"/>
<rect width="22.5" height="22.5" transform="matrix(-1 0 0 1 61 135)" fill="#070E27"/>
<rect width="22.5" height="22.5" transform="matrix(-1 0 0 1 61 315)" fill="#070E27"/>
<rect width="22.5" height="22.5" transform="matrix(-1 0 0 1 38.5 0)" fill="#070E27"/>
<rect width="22.5" height="22.5" transform="matrix(-1 0 0 1 38.5 180)" fill="#070E27"/>
<rect width="22.5" height="22.5" transform="matrix(-1 0 0 1 38.5 90)" fill="#070E27"/>
<rect width="22.5" height="22.5" transform="matrix(-1 0 0 1 38.5 270)" fill="#070E27"/>
<rect width="22.5" height="22.5" transform="matrix(-1 0 0 1 38.5 45)" fill="#070E27"/>
<rect width="22.5" height="22.5" transform="matrix(-1 0 0 1 38.5 225)" fill="#070E27"/>
<rect width="22.5" height="22.5" transform="matrix(-1 0 0 1 38.5 135)" fill="#070E27"/>
<rect width="22.5" height="22.5" transform="matrix(-1 0 0 1 38.5 315)" fill="#070E27"/>
<rect width="22.5" height="22.5" transform="matrix(-1 0 0 1 331 22.5)" fill="#070E27"/>
<rect width="22.5" height="22.5" transform="matrix(-1 0 0 1 331 202.5)" fill="#070E27"/>
<rect width="22.5" height="22.5" transform="matrix(-1 0 0 1 331 112.5)" fill="#070E27"/>
<rect width="22.5" height="22.5" transform="matrix(-1 0 0 1 331 292.5)" fill="#070E27"/>
<rect width="22.5" height="22.5" transform="matrix(-1 0 0 1 331 67.5)" fill="#070E27"/>
<rect width="22.5" height="22.5" transform="matrix(-1 0 0 1 331 247.5)" fill="#070E27"/>
<rect width="22.5" height="22.5" transform="matrix(-1 0 0 1 331 157.5)" fill="#070E27"/>
<rect width="22.5" height="22.5" transform="matrix(-1 0 0 1 331 337.5)" fill="#070E27"/>
<rect width="22.5" height="22.5" transform="matrix(-1 0 0 1 308.5 22.5)" fill="#070E27"/>
<rect width="22.5" height="22.5" transform="matrix(-1 0 0 1 308.5 202.5)" fill="#070E27"/>
<rect width="22.5" height="22.5" transform="matrix(-1 0 0 1 308.5 112.5)" fill="#CCCCCC"/>
<rect width="22.5" height="22.5" transform="matrix(-1 0 0 1 308.5 292.5)" fill="#070E27"/>
<rect width="22.5" height="22.5" transform="matrix(-1 0 0 1 308.5 67.5)" fill="#070E27"/>
<rect width="22.5" height="22.5" transform="matrix(-1 0 0 1 308.5 247.5)" fill="#5C0011"/>
<rect width="22.5" height="22.5" transform="matrix(-1 0 0 1 308.5 157.5)" fill="#CCCCCC"/>
<rect width="22.5" height="22.5" transform="matrix(-1 0 0 1 308.5 337.5)" fill="#070E27"/>
<rect width="22.5" height="22.5" transform="matrix(-1 0 0 1 286 22.5)" fill="#070E27"/>
<rect width="22.5" height="22.5" transform="matrix(-1 0 0 1 286 202.5)" fill="#5C0011"/>
<rect width="22.5" height="22.5" transform="matrix(-1 0 0 1 286 112.5)" fill="#CCCCCC"/>
<rect width="22.5" height="22.5" transform="matrix(-1 0 0 1 286 292.5)" fill="#5C0011"/>
<rect width="22.5" height="22.5" transform="matrix(-1 0 0 1 286 67.5)" fill="#070E27"/>
<rect width="22.5" height="22.5" transform="matrix(-1 0 0 1 286 247.5)" fill="#820014"/>
<rect width="22.5" height="22.5" transform="matrix(-1 0 0 1 286 157.5)" fill="#CCCCCC"/>
<rect width="22.5" height="22.5" transform="matrix(-1 0 0 1 286 337.5)" fill="#070E27"/>
<rect width="22.5" height="22.5" transform="matrix(-1 0 0 1 263.5 22.5)" fill="#070E27"/>
<rect width="22.5" height="22.5" transform="matrix(-1 0 0 1 263.5 202.5)" fill="#F5222D"/>
<rect width="22.5" height="22.5" transform="matrix(-1 0 0 1 263.5 112.5)" fill="#CCCCCC"/>
<rect width="22.5" height="22.5" transform="matrix(-1 0 0 1 263.5 292.5)" fill="black"/>
<rect width="22.5" height="22.5" transform="matrix(-1 0 0 1 263.5 67.5)" fill="#CCCCCC"/>
<rect width="22.5" height="22.5" transform="matrix(-1 0 0 1 263.5 247.5)" fill="#FF4D4F"/>
<rect width="22.5" height="22.5" transform="matrix(-1 0 0 1 263.5 157.5)" fill="black"/>
<rect width="22.5" height="22.5" transform="matrix(-1 0 0 1 263.5 337.5)" fill="#08979C"/>
<rect width="22.5" height="22.5" transform="matrix(-1 0 0 1 241 22.5)" fill="#070E27"/>
<rect width="22.5" height="22.5" transform="matrix(-1 0 0 1 241 202.5)" fill="#FFD8BF"/>
<rect width="22.5" height="22.5" transform="matrix(-1 0 0 1 241 112.5)" fill="#CCCCCC"/>
<rect width="22.5" height="22.5" transform="matrix(-1 0 0 1 241 292.5)" fill="#820014"/>
<rect width="22.5" height="22.5" transform="matrix(-1 0 0 1 241 67.5)" fill="#CCCCCC"/>
<rect width="22.5" height="22.5" transform="matrix(-1 0 0 1 241 247.5)" fill="#820014"/>
<rect width="22.5" height="22.5" transform="matrix(-1 0 0 1 241 157.5)" fill="black"/>
<rect width="22.5" height="22.5" transform="matrix(-1 0 0 1 241 337.5)" fill="#08979C"/>
<rect width="22.5" height="22.5" transform="matrix(-1 0 0 1 218.5 22.5)" fill="#070E27"/>
<rect width="22.5" height="22.5" transform="matrix(-1 0 0 1 218.5 202.5)" fill="#FFD8BF"/>
<rect width="22.5" height="22.5" transform="matrix(-1 0 0 1 218.5 112.5)" fill="#CCCCCC"/>
<rect width="22.5" height="22.5" transform="matrix(-1 0 0 1 218.5 292.5)" fill="#820014"/>
<rect width="22.5" height="22.5" transform="matrix(-1 0 0 1 218.5 67.5)" fill="#CCCCCC"/>
<rect width="22.5" height="22.5" transform="matrix(-1 0 0 1 218.5 247.5)" fill="#F5222D"/>
<rect width="22.5" height="22.5" transform="matrix(-1 0 0 1 218.5 157.5)" fill="black"/>
<rect width="22.5" height="22.5" transform="matrix(-1 0 0 1 218.5 337.5)" fill="#070E27"/>
<rect width="22.5" height="22.5" transform="matrix(-1 0 0 1 196 22.5)" fill="#070E27"/>
<rect width="22.5" height="22.5" transform="matrix(-1 0 0 1 196 202.5)" fill="#FF9C6E"/>
<rect width="22.5" height="22.5" transform="matrix(-1 0 0 1 196 112.5)" fill="#CCCCCC"/>
<rect width="22.5" height="22.5" transform="matrix(-1 0 0 1 196 292.5)" fill="#820014"/>
<rect width="22.5" height="22.5" transform="matrix(-1 0 0 1 196 67.5)" fill="#CCCCCC"/>
<rect width="22.5" height="22.5" transform="matrix(-1 0 0 1 196 247.5)" fill="#F5222D"/>
<rect width="22.5" height="22.5" transform="matrix(-1 0 0 1 196 157.5)" fill="black"/>
<rect width="22.5" height="22.5" transform="matrix(-1 0 0 1 196 337.5)" fill="#070E27"/>
<rect width="22.5" height="22.5" transform="matrix(-1 0 0 1 173.5 22.5)" fill="#070E27"/>
<rect width="22.5" height="22.5" transform="matrix(-1 0 0 1 173.5 202.5)" fill="#FFD8BF"/>
<rect width="22.5" height="22.5" transform="matrix(-1 0 0 1 173.5 112.5)" fill="#CCCCCC"/>
<rect width="22.5" height="22.5" transform="matrix(-1 0 0 1 173.5 292.5)" fill="#820014"/>
<rect width="22.5" height="22.5" transform="matrix(-1 0 0 1 173.5 67.5)" fill="#CCCCCC"/>
<rect width="22.5" height="22.5" transform="matrix(-1 0 0 1 173.5 247.5)" fill="#F5222D"/>
<rect width="22.5" height="22.5" transform="matrix(-1 0 0 1 173.5 157.5)" fill="black"/>
<rect width="22.5" height="22.5" transform="matrix(-1 0 0 1 173.5 337.5)" fill="#08979C"/>
<rect width="22.5" height="22.5" transform="matrix(-1 0 0 1 151 22.5)" fill="#070E27"/>
<rect width="22.5" height="22.5" transform="matrix(-1 0 0 1 151 202.5)" fill="#FFD8BF"/>
<rect width="22.5" height="22.5" transform="matrix(-1 0 0 1 151 112.5)" fill="#CCCCCC"/>
<rect width="22.5" height="22.5" transform="matrix(-1 0 0 1 151 292.5)" fill="#820014"/>
<rect width="22.5" height="22.5" transform="matrix(-1 0 0 1 151 67.5)" fill="#B2B2B2"/>
<rect width="22.5" height="22.5" transform="matrix(-1 0 0 1 151 247.5)" fill="#F5222D"/>
<rect width="22.5" height="22.5" transform="matrix(-1 0 0 1 151 157.5)" fill="black"/>
<rect width="22.5" height="22.5" transform="matrix(-1 0 0 1 151 337.5)" fill="#08979C"/>
<rect width="22.5" height="22.5" transform="matrix(-1 0 0 1 128.5 22.5)" fill="#070E27"/>
<rect width="22.5" height="22.5" transform="matrix(-1 0 0 1 128.5 202.5)" fill="#070E27"/>
<rect width="22.5" height="22.5" transform="matrix(-1 0 0 1 128.5 112.5)" fill="#CCCCCC"/>
<rect width="22.5" height="22.5" transform="matrix(-1 0 0 1 128.5 292.5)" fill="#070E27"/>
<rect width="22.5" height="22.5" transform="matrix(-1 0 0 1 128.5 67.5)" fill="#070E27"/>
<rect width="22.5" height="22.5" transform="matrix(-1 0 0 1 128.5 247.5)" fill="#FF4D4F"/>
<rect width="22.5" height="22.5" transform="matrix(-1 0 0 1 128.5 157.5)" fill="black"/>
<rect width="22.5" height="22.5" transform="matrix(-1 0 0 1 128.5 337.5)" fill="#070E27"/>
<rect width="22.5" height="22.5" transform="matrix(-1 0 0 1 106 22.5)" fill="#070E27"/>
<rect width="22.5" height="22.5" transform="matrix(-1 0 0 1 106 202.5)" fill="#070E27"/>
<rect width="22.5" height="22.5" transform="matrix(-1 0 0 1 106 112.5)" fill="#CCCCCC"/>
<rect width="22.5" height="22.5" transform="matrix(-1 0 0 1 106 292.5)" fill="#070E27"/>
<rect width="22.5" height="22.5" transform="matrix(-1 0 0 1 106 67.5)" fill="#070E27"/>
<rect width="22.5" height="22.5" transform="matrix(-1 0 0 1 106 247.5)" fill="#070E27"/>
<rect width="22.5" height="22.5" transform="matrix(-1 0 0 1 106 157.5)" fill="#CCCCCC"/>
<rect width="22.5" height="22.5" transform="matrix(-1 0 0 1 106 337.5)" fill="#070E27"/>
<rect width="22.5" height="22.5" transform="matrix(-1 0 0 1 83.5 22.5)" fill="#070E27"/>
<rect width="22.5" height="22.5" transform="matrix(-1 0 0 1 83.5 202.5)" fill="#070E27"/>
<rect width="22.5" height="22.5" transform="matrix(-1 0 0 1 83.5 112.5)" fill="#070E27"/>
<rect width="22.5" height="22.5" transform="matrix(-1 0 0 1 83.5 292.5)" fill="#070E27"/>
<rect width="22.5" height="22.5" transform="matrix(-1 0 0 1 83.5 67.5)" fill="#070E27"/>
<rect width="22.5" height="22.5" transform="matrix(-1 0 0 1 83.5 247.5)" fill="#070E27"/>
<rect width="22.5" height="22.5" transform="matrix(-1 0 0 1 83.5 157.5)" fill="#070E27"/>
<rect width="22.5" height="22.5" transform="matrix(-1 0 0 1 83.5 337.5)" fill="#070E27"/>
<rect width="22.5" height="22.5" transform="matrix(-1 0 0 1 61 22.5)" fill="#070E27"/>
<rect width="22.5" height="22.5" transform="matrix(-1 0 0 1 61 202.5)" fill="#070E27"/>
<rect width="22.5" height="22.5" transform="matrix(-1 0 0 1 61 112.5)" fill="#070E27"/>
<rect width="22.5" height="22.5" transform="matrix(-1 0 0 1 61 292.5)" fill="#070E27"/>
<rect width="22.5" height="22.5" transform="matrix(-1 0 0 1 61 67.5)" fill="#070E27"/>
<rect width="22.5" height="22.5" transform="matrix(-1 0 0 1 61 247.5)" fill="#070E27"/>
<rect width="22.5" height="22.5" transform="matrix(-1 0 0 1 61 157.5)" fill="#070E27"/>
<rect width="22.5" height="22.5" transform="matrix(-1 0 0 1 61 337.5)" fill="#070E27"/>
<rect width="22.5" height="22.5" transform="matrix(-1 0 0 1 38.5 22.5)" fill="#070E27"/>
<rect width="22.5" height="22.5" transform="matrix(-1 0 0 1 38.5 202.5)" fill="#070E27"/>
<rect width="22.5" height="22.5" transform="matrix(-1 0 0 1 38.5 112.5)" fill="#070E27"/>
<rect width="22.5" height="22.5" transform="matrix(-1 0 0 1 38.5 292.5)" fill="#070E27"/>
<rect width="22.5" height="22.5" transform="matrix(-1 0 0 1 38.5 67.5)" fill="#070E27"/>
<rect width="22.5" height="22.5" transform="matrix(-1 0 0 1 38.5 247.5)" fill="#070E27"/>
<rect width="22.5" height="22.5" transform="matrix(-1 0 0 1 38.5 157.5)" fill="#070E27"/>
<rect width="22.5" height="22.5" transform="matrix(-1 0 0 1 38.5 337.5)" fill="#070E27"/>
<rect width="22.5" height="22.5" transform="matrix(-1 0 0 1 353.5 0)" fill="#070E27"/>
<rect width="22.5" height="22.5" transform="matrix(-1 0 0 1 353.5 180)" fill="#070E27"/>
<rect width="22.5" height="22.5" transform="matrix(-1 0 0 1 353.5 90)" fill="#070E27"/>
<rect width="22.5" height="22.5" transform="matrix(-1 0 0 1 353.5 270)" fill="#070E27"/>
<rect width="22.5" height="22.5" transform="matrix(-1 0 0 1 353.5 45)" fill="#070E27"/>
<rect width="22.5" height="22.5" transform="matrix(-1 0 0 1 353.5 225)" fill="#070E27"/>
<rect width="22.5" height="22.5" transform="matrix(-1 0 0 1 353.5 135)" fill="#070E27"/>
<rect width="22.5" height="22.5" transform="matrix(-1 0 0 1 353.5 315)" fill="#070E27"/>
<rect width="22.5" height="22.5" transform="matrix(-1 0 0 1 353.5 22.5)" fill="#070E27"/>
<rect width="22.5" height="22.5" transform="matrix(-1 0 0 1 353.5 202.5)" fill="#070E27"/>
<rect width="22.5" height="22.5" transform="matrix(-1 0 0 1 353.5 112.5)" fill="#070E27"/>
<rect width="22.5" height="22.5" transform="matrix(-1 0 0 1 353.5 292.5)" fill="#070E27"/>
<rect width="22.5" height="22.5" transform="matrix(-1 0 0 1 353.5 67.5)" fill="#070E27"/>
<rect width="22.5" height="22.5" transform="matrix(-1 0 0 1 353.5 247.5)" fill="#070E27"/>
<rect width="22.5" height="22.5" transform="matrix(-1 0 0 1 353.5 157.5)" fill="#070E27"/>
<rect width="22.5" height="22.5" transform="matrix(-1 0 0 1 353.5 337.5)" fill="#070E27"/>
</svg>
