<svg width="52" height="12" viewBox="0 0 52 12" fill="none" xmlns="http://www.w3.org/2000/svg">
<path d="M11.5 6C11.5 9.03757 9.03757 11.5 6 11.5C2.96243 11.5 0.5 9.03757 0.5 6C0.5 2.96243 2.96243 0.5 6 0.5C9.03757 0.5 11.5 2.96243 11.5 6Z" fill="#FF5F57" stroke="#E14640"/>
<path d="M31.5 6C31.5 9.03757 29.0376 11.5 26 11.5C22.9624 11.5 20.5 9.03757 20.5 6C20.5 2.96243 22.9624 0.5 26 0.5C29.0376 0.5 31.5 2.96243 31.5 6Z" fill="#FFBD2E" stroke="#DFA123"/>
<path d="M51.5 6C51.5 9.03757 49.0376 11.5 46 11.5C42.9624 11.5 40.5 9.03757 40.5 6C40.5 2.96243 42.9624 0.5 46 0.5C49.0376 0.5 51.5 2.96243 51.5 6Z" fill="#28CA42" stroke="#5362E9"/>
</svg>
