<svg width="10" height="14" viewBox="0 0 10 14" fill="none" xmlns="http://www.w3.org/2000/svg">
<path d="M1.81774 13.0012H8.13117C9.01522 13.0012 9.44889 12.5675 9.44889 11.6084V6.75446C9.44889 5.90378 9.0986 5.46176 8.39805 5.37836V3.72702C8.39805 1.16663 6.67999 -0.000976562 4.97861 -0.000976562C3.26891 -0.000976562 1.55919 1.16663 1.55919 3.72702V5.40338C0.900332 5.52848 0.5 5.96216 0.5 6.75446V11.6084C0.5 12.5675 0.942025 13.0012 1.81774 13.0012ZM2.93531 3.5769C2.93531 2.08403 3.88608 1.31675 4.97861 1.31675C6.06283 1.31675 7.02193 2.08403 7.02193 3.5769V5.36167L2.93531 5.37002V3.5769Z" fill="white"/>
</svg>
