<svg width="46" height="46" viewBox="0 0 46 46" fill="none" xmlns="http://www.w3.org/2000/svg">
<path d="M33.5417 23C39.3637 23 44.0833 27.7196 44.0833 33.5417C44.0833 39.3637 39.3637 44.0833 33.5417 44.0833C27.7196 44.0833 23 39.3637 23 33.5417C23 27.7196 27.7196 23 33.5417 23ZM33.5417 26.8318L33.3694 26.8473C32.9782 26.9182 32.6698 27.2268 32.5989 27.618L32.5833 27.7901L32.5826 32.5818L27.7873 32.5833L27.615 32.5989C27.2238 32.6698 26.9152 32.9782 26.8443 33.3694L26.8289 33.5417L26.8443 33.714C26.9152 34.1052 27.2238 34.4136 27.615 34.4845L27.7873 34.5L32.5847 34.4985L32.5855 39.2984L32.601 39.4707C32.6719 39.8619 32.9803 40.1703 33.3715 40.2412L33.5438 40.2567L33.7161 40.2412C34.1073 40.1703 34.4157 39.8619 34.4868 39.4707L34.5021 39.2984L34.5014 34.4985L39.3005 34.5L39.4726 34.4845C39.8638 34.4136 40.1724 34.1052 40.2433 33.714L40.2588 33.5417L40.2433 33.3694C40.1724 32.9782 39.8638 32.6698 39.4726 32.5989L39.3005 32.5833L34.4992 32.5818L34.5 27.7901L34.4845 27.618C34.4136 27.2268 34.1052 26.9182 33.714 26.8473L33.5417 26.8318ZM27.3202 19.1667C28.9198 19.1667 30.3159 20.0374 31.0604 21.331C30.038 21.5372 29.0626 21.8684 28.1491 22.3077C27.9161 22.1394 27.6295 22.0417 27.3202 22.0417H18.6912C17.8973 22.0417 17.2537 22.6853 17.2537 23.4792V31.6231C17.2537 34.3273 19.1199 36.5957 21.6346 37.2105C21.9658 38.2946 22.4436 39.3162 23.0433 40.2523L23.0058 40.25C18.2412 40.25 14.3787 36.3875 14.3787 31.6231V23.4792C14.3787 21.0975 16.3095 19.1667 18.6912 19.1667H27.3202ZM14.1957 19.1672C13.4393 19.9556 12.8882 20.9427 12.6286 22.0422L8.14584 22.0417C7.35194 22.0417 6.70834 22.6853 6.70834 23.4792V28.7477C6.70834 31.3954 8.8547 33.5417 11.5024 33.5417C11.8857 33.5417 12.2585 33.4966 12.6158 33.4117C12.7782 34.3775 13.0747 35.2987 13.4835 36.156C12.8527 36.3266 12.1881 36.4167 11.5024 36.4167C7.2669 36.4167 3.83334 32.9832 3.83334 28.7477V23.4792C3.83334 21.1966 5.60657 19.3284 7.85058 19.1766L8.14584 19.1667L14.1957 19.1672ZM37.8542 19.1667C40.2358 19.1667 42.1667 21.0975 42.1667 23.4792L42.1682 24.5533C39.9295 22.4041 36.8899 21.0833 33.5417 21.0833L33.0717 21.092C32.7769 20.3724 32.347 19.721 31.8157 19.1672L37.8542 19.1667ZM35.4583 7.66667C38.1047 7.66667 40.25 9.81197 40.25 12.4583C40.25 15.1047 38.1047 17.25 35.4583 17.25C32.812 17.25 30.6667 15.1047 30.6667 12.4583C30.6667 9.81197 32.812 7.66667 35.4583 7.66667ZM23 5.75C26.1757 5.75 28.75 8.32437 28.75 11.5C28.75 14.6756 26.1757 17.25 23 17.25C19.8243 17.25 17.25 14.6756 17.25 11.5C17.25 8.32437 19.8243 5.75 23 5.75ZM10.5417 7.66667C13.188 7.66667 15.3333 9.81197 15.3333 12.4583C15.3333 15.1047 13.188 17.25 10.5417 17.25C7.89532 17.25 5.75001 15.1047 5.75001 12.4583C5.75001 9.81197 7.89532 7.66667 10.5417 7.66667ZM35.4583 10.5417C34.3998 10.5417 33.5417 11.3998 33.5417 12.4583C33.5417 13.5169 34.3998 14.375 35.4583 14.375C36.5169 14.375 37.375 13.5169 37.375 12.4583C37.375 11.3998 36.5169 10.5417 35.4583 10.5417ZM23 8.625C21.4122 8.625 20.125 9.91218 20.125 11.5C20.125 13.0878 21.4122 14.375 23 14.375C24.5878 14.375 25.875 13.0878 25.875 11.5C25.875 9.91218 24.5878 8.625 23 8.625ZM10.5417 10.5417C9.48314 10.5417 8.62501 11.3998 8.62501 12.4583C8.62501 13.5169 9.48314 14.375 10.5417 14.375C11.6002 14.375 12.4583 13.5169 12.4583 12.4583C12.4583 11.3998 11.6002 10.5417 10.5417 10.5417Z" fill="#7E8BB6"/>
</svg>
