<svg width="40" height="40" viewBox="0 0 40 40" fill="none" xmlns="http://www.w3.org/2000/svg">
<path d="M14.125 25.4997C13.75 24.9997 13.375 24.1247 12.625 22.9997C12.25 22.3747 11.125 21.1247 10.75 20.6247C10.5 20.1247 10.5 19.8747 10.625 19.3747C10.75 18.6247 11.5 17.9997 12.375 17.9997C13 17.9997 13.625 18.4997 14.125 18.8747C14.375 19.1247 14.75 19.6247 15 19.8747C15.25 20.1247 15.25 20.2497 15.5 20.4997C15.75 20.8747 15.875 21.1247 15.75 20.6247C15.625 19.9997 15.5 18.9997 15.25 17.9997C15.125 17.2497 15 17.1247 14.875 16.6247C14.75 15.9997 14.625 15.6247 14.5 14.9997C14.375 14.6247 14.25 13.6247 14.125 13.1247C14 12.4997 14 11.3747 14.5 10.8747C14.875 10.4997 15.625 10.3747 16.125 10.6247C16.75 10.9997 17.125 11.8747 17.25 12.2497C17.5 12.8747 17.75 13.7497 17.875 14.7497C18.125 15.9997 18.5 17.8747 18.5 18.2497C18.5 17.7497 18.375 16.8747 18.5 16.3747C18.625 15.9997 18.875 15.4997 19.375 15.3747C19.75 15.2497 20.125 15.2497 20.5 15.2497C20.875 15.3747 21.25 15.6247 21.5 15.8747C22 16.6247 22 18.2497 22 18.1247C22.125 17.6247 22.125 16.6247 22.375 16.1247C22.5 15.8747 23 15.6247 23.25 15.4997C23.625 15.3747 24.125 15.3747 24.5 15.4997C24.75 15.4997 25.25 15.8747 25.375 16.1247C25.625 16.4997 25.75 17.7497 25.875 18.2497C25.875 18.3747 26 17.7497 26.25 17.3747C26.75 16.6247 28.5 16.3747 28.625 18.1247C28.625 18.9997 28.625 18.8747 28.625 19.4997C28.625 20.1247 28.625 20.4997 28.625 20.9997C28.625 21.4997 28.5 22.6247 28.375 23.1247C28.25 23.4997 27.875 24.3747 27.5 24.8747C27.5 24.8747 26.125 26.3747 26 27.1247C25.875 27.8747 25.875 27.8747 25.875 28.3747C25.875 28.8747 26 29.4997 26 29.4997C26 29.4997 25 29.6247 24.5 29.4997C24 29.3747 23.375 28.4997 23.25 28.1247C23 27.7497 22.625 27.7497 22.375 28.1247C22.125 28.6247 21.5 29.4997 21 29.4997C20.125 29.6247 18.375 29.4997 17.125 29.4997C17.125 29.4997 17.375 28.2497 16.875 27.7497C16.5 27.3747 15.875 26.7497 15.5 26.3747L14.125 25.4997Z" fill="white"/>
<path d="M14.125 25.4997C13.75 24.9997 13.375 24.1247 12.625 22.9997C12.25 22.3747 11.125 21.1247 10.75 20.6247C10.5 20.1247 10.5 19.8747 10.625 19.3747C10.75 18.6247 11.5 17.9997 12.375 17.9997C13 17.9997 13.625 18.4997 14.125 18.8747C14.375 19.1247 14.75 19.6247 15 19.8747C15.25 20.1247 15.25 20.2497 15.5 20.4997C15.75 20.8747 15.875 21.1247 15.75 20.6247C15.625 19.9997 15.5 18.9997 15.25 17.9997C15.125 17.2497 15 17.1247 14.875 16.6247C14.75 15.9997 14.625 15.6247 14.5 14.9997C14.375 14.6247 14.25 13.6247 14.125 13.1247C14 12.4997 14 11.3747 14.5 10.8747C14.875 10.4997 15.625 10.3747 16.125 10.6247C16.75 10.9997 17.125 11.8747 17.25 12.2497C17.5 12.8747 17.75 13.7497 17.875 14.7497C18.125 15.9997 18.5 17.8747 18.5 18.2497C18.5 17.7497 18.375 16.8747 18.5 16.3747C18.625 15.9997 18.875 15.4997 19.375 15.3747C19.75 15.2497 20.125 15.2497 20.5 15.2497C20.875 15.3747 21.25 15.6247 21.5 15.8747C22 16.6247 22 18.2497 22 18.1247C22.125 17.6247 22.125 16.6247 22.375 16.1247C22.5 15.8747 23 15.6247 23.25 15.4997C23.625 15.3747 24.125 15.3747 24.5 15.4997C24.75 15.4997 25.25 15.8747 25.375 16.1247C25.625 16.4997 25.75 17.7497 25.875 18.2497C25.875 18.3747 26 17.7497 26.25 17.3747C26.75 16.6247 28.5 16.3747 28.625 18.1247C28.625 18.9997 28.625 18.8747 28.625 19.4997C28.625 20.1247 28.625 20.4997 28.625 20.9997C28.625 21.4997 28.5 22.6247 28.375 23.1247C28.25 23.4997 27.875 24.3747 27.5 24.8747C27.5 24.8747 26.125 26.3747 26 27.1247C25.875 27.8747 25.875 27.8747 25.875 28.3747C25.875 28.8747 26 29.4997 26 29.4997C26 29.4997 25 29.6247 24.5 29.4997C24 29.3747 23.375 28.4997 23.25 28.1247C23 27.7497 22.625 27.7497 22.375 28.1247C22.125 28.6247 21.5 29.4997 21 29.4997C20.125 29.6247 18.375 29.4997 17.125 29.4997C17.125 29.4997 17.375 28.2497 16.875 27.7497C16.5 27.3747 15.875 26.7497 15.5 26.3747L14.125 25.4997Z" stroke="black" stroke-width="0.75" stroke-linecap="round" stroke-linejoin="round"/>
<path d="M24.4998 25.875V21.625" stroke="black" stroke-width="0.75" stroke-linecap="round"/>
<path d="M22 25.875L21.875 21.625" stroke="black" stroke-width="0.75" stroke-linecap="round"/>
<path d="M19.4998 21.625V25.875" stroke="black" stroke-width="0.75" stroke-linecap="round"/>
</svg>
