<svg width="64" height="64" viewBox="0 0 64 64" fill="none" xmlns="http://www.w3.org/2000/svg">
<path d="M22.5999 40.7996C21.9999 39.9996 21.3999 38.5996 20.1999 36.7996C19.5999 35.7996 17.7999 33.7996 17.1999 32.9996C16.7999 32.1996 16.7999 31.7996 16.9999 30.9996C17.1999 29.7996 18.3999 28.7996 19.7999 28.7996C20.7999 28.7996 21.7999 29.5996 22.5999 30.1996C22.9999 30.5996 23.5999 31.3996 23.9999 31.7996C24.3999 32.1996 24.3999 32.3996 24.7999 32.7996C25.1999 33.3996 25.3999 33.7996 25.1999 32.9996C24.9999 31.9996 24.7999 30.3996 24.3999 28.7996C24.1999 27.5996 23.9999 27.3996 23.7999 26.5996C23.5999 25.5996 23.3999 24.9996 23.1999 23.9996C22.9999 23.3996 22.7999 21.7996 22.5999 20.9996C22.3999 19.9996 22.3999 18.1996 23.1999 17.3996C23.7999 16.7996 24.9999 16.5996 25.7999 16.9996C26.7999 17.5996 27.3999 18.9996 27.5999 19.5996C27.9999 20.5996 28.3999 21.9996 28.5999 23.5996C28.9999 25.5996 29.5999 28.5996 29.5999 29.1996C29.5999 28.3996 29.3999 26.9996 29.5999 26.1996C29.7999 25.5996 30.1999 24.7996 30.9999 24.5996C31.5999 24.3996 32.1999 24.3996 32.7999 24.3996C33.3999 24.5996 33.9999 24.9996 34.3999 25.3996C35.1999 26.5996 35.1999 29.1996 35.1999 28.9996C35.3999 28.1996 35.3999 26.5996 35.7999 25.7996C35.9999 25.3996 36.7999 24.9996 37.1999 24.7996C37.7999 24.5996 38.5999 24.5996 39.1999 24.7996C39.5999 24.7996 40.3999 25.3996 40.5999 25.7996C40.9999 26.3996 41.1999 28.3996 41.3999 29.1996C41.3999 29.3996 41.5999 28.3996 41.9999 27.7996C42.7999 26.5996 45.5999 26.1996 45.7999 28.9996C45.7999 30.3996 45.7999 30.1996 45.7999 31.1996C45.7999 32.1996 45.7999 32.7996 45.7999 33.5996C45.7999 34.3996 45.5999 36.1996 45.3999 36.9996C45.1999 37.5996 44.5999 38.9996 43.9999 39.7996C43.9999 39.7996 41.7999 42.1996 41.5999 43.3996C41.3999 44.5996 41.3999 44.5996 41.3999 45.3996C41.3999 46.1996 41.5999 47.1996 41.5999 47.1996C41.5999 47.1996 39.9999 47.3996 39.1999 47.1996C38.3999 46.9996 37.3999 45.5996 37.1999 44.9996C36.7999 44.3996 36.1999 44.3996 35.7999 44.9996C35.3999 45.7996 34.3999 47.1996 33.5999 47.1996C32.1999 47.3996 29.3999 47.1996 27.3999 47.1996C27.3999 47.1996 27.7999 45.1996 26.9999 44.3996C26.3999 43.7996 25.3999 42.7996 24.7999 42.1996L22.5999 40.7996Z" fill="white"/>
<path d="M22.5999 40.7996C21.9999 39.9996 21.3999 38.5996 20.1999 36.7996C19.5999 35.7996 17.7999 33.7996 17.1999 32.9996C16.7999 32.1996 16.7999 31.7996 16.9999 30.9996C17.1999 29.7996 18.3999 28.7996 19.7999 28.7996C20.7999 28.7996 21.7999 29.5996 22.5999 30.1996C22.9999 30.5996 23.5999 31.3996 23.9999 31.7996C24.3999 32.1996 24.3999 32.3996 24.7999 32.7996C25.1999 33.3996 25.3999 33.7996 25.1999 32.9996C24.9999 31.9996 24.7999 30.3996 24.3999 28.7996C24.1999 27.5996 23.9999 27.3996 23.7999 26.5996C23.5999 25.5996 23.3999 24.9996 23.1999 23.9996C22.9999 23.3996 22.7999 21.7996 22.5999 20.9996C22.3999 19.9996 22.3999 18.1996 23.1999 17.3996C23.7999 16.7996 24.9999 16.5996 25.7999 16.9996C26.7999 17.5996 27.3999 18.9996 27.5999 19.5996C27.9999 20.5996 28.3999 21.9996 28.5999 23.5996C28.9999 25.5996 29.5999 28.5996 29.5999 29.1996C29.5999 28.3996 29.3999 26.9996 29.5999 26.1996C29.7999 25.5996 30.1999 24.7996 30.9999 24.5996C31.5999 24.3996 32.1999 24.3996 32.7999 24.3996C33.3999 24.5996 33.9999 24.9996 34.3999 25.3996C35.1999 26.5996 35.1999 29.1996 35.1999 28.9996C35.3999 28.1996 35.3999 26.5996 35.7999 25.7996C35.9999 25.3996 36.7999 24.9996 37.1999 24.7996C37.7999 24.5996 38.5999 24.5996 39.1999 24.7996C39.5999 24.7996 40.3999 25.3996 40.5999 25.7996C40.9999 26.3996 41.1999 28.3996 41.3999 29.1996C41.3999 29.3996 41.5999 28.3996 41.9999 27.7996C42.7999 26.5996 45.5999 26.1996 45.7999 28.9996C45.7999 30.3996 45.7999 30.1996 45.7999 31.1996C45.7999 32.1996 45.7999 32.7996 45.7999 33.5996C45.7999 34.3996 45.5999 36.1996 45.3999 36.9996C45.1999 37.5996 44.5999 38.9996 43.9999 39.7996C43.9999 39.7996 41.7999 42.1996 41.5999 43.3996C41.3999 44.5996 41.3999 44.5996 41.3999 45.3996C41.3999 46.1996 41.5999 47.1996 41.5999 47.1996C41.5999 47.1996 39.9999 47.3996 39.1999 47.1996C38.3999 46.9996 37.3999 45.5996 37.1999 44.9996C36.7999 44.3996 36.1999 44.3996 35.7999 44.9996C35.3999 45.7996 34.3999 47.1996 33.5999 47.1996C32.1999 47.3996 29.3999 47.1996 27.3999 47.1996C27.3999 47.1996 27.7999 45.1996 26.9999 44.3996C26.3999 43.7996 25.3999 42.7996 24.7999 42.1996L22.5999 40.7996Z" stroke="#342F4D" stroke-width="0.75" stroke-linecap="round" stroke-linejoin="round"/>
<path d="M39.1997 41.3999V34.5999" stroke="#342F4D" stroke-width="0.75" stroke-linecap="round"/>
<path d="M35.2 41.3999L35 34.5999" stroke="#342F4D" stroke-width="0.75" stroke-linecap="round"/>
<path d="M31.1997 34.5999V41.3999" stroke="#342F4D" stroke-width="0.75" stroke-linecap="round"/>
</svg>
