<svg width="40" height="40" viewBox="0 0 40 40" fill="none" xmlns="http://www.w3.org/2000/svg">
<path d="M14.125 25.4998C13.75 24.9998 13.375 24.1248 12.625 22.9998C12.25 22.3748 11.125 21.1248 10.75 20.6248C10.5 20.1248 10.5 19.8748 10.625 19.3748C10.75 18.6248 11.5 17.9998 12.375 17.9998C13 17.9998 13.625 18.4998 14.125 18.8748C14.375 19.1248 14.75 19.6248 15 19.8748C15.25 20.1248 15.25 20.2498 15.5 20.4998C15.75 20.8748 15.875 21.1248 15.75 20.6248C15.625 19.9998 15.5 18.9998 15.25 17.9998C15.125 17.2498 15 17.1248 14.875 16.6248C14.75 15.9998 14.625 15.6248 14.5 14.9998C14.375 14.6248 14.25 13.6248 14.125 13.1248C14 12.4998 14 11.3748 14.5 10.8748C14.875 10.4998 15.625 10.3748 16.125 10.6248C16.75 10.9998 17.125 11.8748 17.25 12.2498C17.5 12.8748 17.75 13.7498 17.875 14.7498C18.125 15.9998 18.5 17.8748 18.5 18.2498C18.5 17.7498 18.375 16.8748 18.5 16.3748C18.625 15.9998 18.875 15.4998 19.375 15.3748C19.75 15.2498 20.125 15.2498 20.5 15.2498C20.875 15.3748 21.25 15.6248 21.5 15.8748C22 16.6248 22 18.2498 22 18.1248C22.125 17.6248 22.125 16.6248 22.375 16.1248C22.5 15.8748 23 15.6248 23.25 15.4998C23.625 15.3748 24.125 15.3748 24.5 15.4998C24.75 15.4998 25.25 15.8748 25.375 16.1248C25.625 16.4998 25.75 17.7498 25.875 18.2498C25.875 18.3748 26 17.7498 26.25 17.3748C26.75 16.6248 28.5 16.3748 28.625 18.1248C28.625 18.9998 28.625 18.8748 28.625 19.4998C28.625 20.1248 28.625 20.4998 28.625 20.9998C28.625 21.4998 28.5 22.6248 28.375 23.1248C28.25 23.4998 27.875 24.3748 27.5 24.8748C27.5 24.8748 26.125 26.3748 26 27.1248C25.875 27.8748 25.875 27.8748 25.875 28.3748C25.875 28.8748 26 29.4998 26 29.4998C26 29.4998 25 29.6248 24.5 29.4998C24 29.3748 23.375 28.4998 23.25 28.1248C23 27.7498 22.625 27.7498 22.375 28.1248C22.125 28.6248 21.5 29.4998 21 29.4998C20.125 29.6248 18.375 29.4998 17.125 29.4998C17.125 29.4998 17.375 28.2498 16.875 27.7498C16.5 27.3748 15.875 26.7498 15.5 26.3748L14.125 25.4998Z" fill="white"/>
<path d="M14.125 25.4998C13.75 24.9998 13.375 24.1248 12.625 22.9998C12.25 22.3748 11.125 21.1248 10.75 20.6248C10.5 20.1248 10.5 19.8748 10.625 19.3748C10.75 18.6248 11.5 17.9998 12.375 17.9998C13 17.9998 13.625 18.4998 14.125 18.8748C14.375 19.1248 14.75 19.6248 15 19.8748C15.25 20.1248 15.25 20.2498 15.5 20.4998C15.75 20.8748 15.875 21.1248 15.75 20.6248C15.625 19.9998 15.5 18.9998 15.25 17.9998C15.125 17.2498 15 17.1248 14.875 16.6248C14.75 15.9998 14.625 15.6248 14.5 14.9998C14.375 14.6248 14.25 13.6248 14.125 13.1248C14 12.4998 14 11.3748 14.5 10.8748C14.875 10.4998 15.625 10.3748 16.125 10.6248C16.75 10.9998 17.125 11.8748 17.25 12.2498C17.5 12.8748 17.75 13.7498 17.875 14.7498C18.125 15.9998 18.5 17.8748 18.5 18.2498C18.5 17.7498 18.375 16.8748 18.5 16.3748C18.625 15.9998 18.875 15.4998 19.375 15.3748C19.75 15.2498 20.125 15.2498 20.5 15.2498C20.875 15.3748 21.25 15.6248 21.5 15.8748C22 16.6248 22 18.2498 22 18.1248C22.125 17.6248 22.125 16.6248 22.375 16.1248C22.5 15.8748 23 15.6248 23.25 15.4998C23.625 15.3748 24.125 15.3748 24.5 15.4998C24.75 15.4998 25.25 15.8748 25.375 16.1248C25.625 16.4998 25.75 17.7498 25.875 18.2498C25.875 18.3748 26 17.7498 26.25 17.3748C26.75 16.6248 28.5 16.3748 28.625 18.1248C28.625 18.9998 28.625 18.8748 28.625 19.4998C28.625 20.1248 28.625 20.4998 28.625 20.9998C28.625 21.4998 28.5 22.6248 28.375 23.1248C28.25 23.4998 27.875 24.3748 27.5 24.8748C27.5 24.8748 26.125 26.3748 26 27.1248C25.875 27.8748 25.875 27.8748 25.875 28.3748C25.875 28.8748 26 29.4998 26 29.4998C26 29.4998 25 29.6248 24.5 29.4998C24 29.3748 23.375 28.4998 23.25 28.1248C23 27.7498 22.625 27.7498 22.375 28.1248C22.125 28.6248 21.5 29.4998 21 29.4998C20.125 29.6248 18.375 29.4998 17.125 29.4998C17.125 29.4998 17.375 28.2498 16.875 27.7498C16.5 27.3748 15.875 26.7498 15.5 26.3748L14.125 25.4998Z" stroke="black" stroke-width="0.75" stroke-linecap="round" stroke-linejoin="round"/>
<path d="M24.4998 25.875V21.625" stroke="black" stroke-width="0.75" stroke-linecap="round"/>
<path d="M22 25.875L21.875 21.625" stroke="black" stroke-width="0.75" stroke-linecap="round"/>
<path d="M19.4998 21.625V25.875" stroke="black" stroke-width="0.75" stroke-linecap="round"/>
</svg>
