<svg width="13" height="19" viewBox="0 0 13 19" fill="none" xmlns="http://www.w3.org/2000/svg">
<path d="M10.7302 8.28886C10.7302 8.38036 10.7302 8.47186 10.7302 8.60911C10.7302 10.8052 8.95969 12.6352 6.73517 12.6352C5.10084 12.6352 3.64809 11.6287 3.05791 10.1646C3.05791 10.0731 3.05791 10.0274 3.05791 9.93589C3.05791 7.73985 4.82844 5.90982 7.05295 5.90982C8.68729 5.90982 10.0946 6.87058 10.7302 8.28886L10.6848 0.0537109C5.14623 0.0537109 0.65181 4.58304 0.65181 10.1646H2.96711V18.3998C8.5057 18.3998 13.0001 13.8705 13.0001 8.28886H10.7302Z" fill="url(#paint0_linear_2_1456)"/>
<defs>
<linearGradient id="paint0_linear_2_1456" x1="6.82597" y1="0.0537109" x2="6.82597" y2="18.3998" gradientUnits="userSpaceOnUse">
<stop stop-color="#5660E5"/>
<stop offset="1" stop-color="#B028C8"/>
</linearGradient>
</defs>
</svg>
