<svg width="19" height="27" viewBox="0 0 19 27" fill="none" xmlns="http://www.w3.org/2000/svg">
<path d="M14.764 12.0829C14.764 12.2163 14.764 12.3497 14.764 12.5497C14.764 15.7509 12.1831 18.4185 8.94049 18.4185C6.55814 18.4185 4.44049 16.9513 3.58019 14.8172C3.58019 14.6838 3.58019 14.6171 3.58019 14.4837C3.58019 11.2826 6.16107 8.61499 9.40372 8.61499C11.7861 8.61499 13.8375 10.0155 14.764 12.0829L14.6978 0.0786133C6.6243 0.0786133 0.0728455 6.68096 0.0728455 14.8172H3.44783V26.8215C11.5214 26.8215 18.0728 20.2191 18.0728 12.0829H14.764Z" fill="url(#paint0_linear_2_295)"/>
<defs>
<linearGradient id="paint0_linear_2_295" x1="9.07285" y1="0.0786133" x2="9.07285" y2="26.8215" gradientUnits="userSpaceOnUse">
<stop stop-color="#5660E5"/>
<stop offset="1" stop-color="#B028C8"/>
</linearGradient>
</defs>
</svg>
